<svg id="Icon_2" data-name="Icon 2" xmlns="http://www.w3.org/2000/svg" xmlns:xlink="http://www.w3.org/1999/xlink" viewBox="0 0 283.46 283.46"><defs><style>.cls-1{stroke:#fff;stroke-miterlimit:10;fill:url(#linear-gradient);}.cls-2{fill:#fff;}</style><linearGradient id="linear-gradient" x1="22.07" y1="141.73" x2="261.4" y2="141.73" gradientUnits="userSpaceOnUse"><stop offset="0" stop-color="#1629f4"/><stop offset="1" stop-color="#04fe01"/></linearGradient></defs><rect class="cls-1" x="22.07" y="22.07" width="239.33" height="239.33" rx="25.92"/><path class="cls-2" d="M205,110.38A69.45,69.45,0,0,0,173.45,77.5l.87-4.65,6.93-37.69.41-2.28-2.28-.43-5.59-1-3.62-.67-2.29-.43-.42,2.29L132,225l-4.3,23.3-.42,2.28,2.29.43,4.27.8,4.93.93,2.3.45.42-2.31,7.79-42c38.11-5.15,56.73-33.35,61.11-56.21A70.34,70.34,0,0,0,205,110.38ZM152.07,193.3,170.58,93.05c15.64,8.56,29.45,29.64,25.77,54.33C192.37,174.19,171.15,190.56,152.07,193.3Z"/><path class="cls-2" d="M146.89,70.6l-.29,2.46c-.29,2.54-.77,4.94-1.28,7.48-.14.74-.29,1.5-.44,2.27l-.35,1.85-1.89,0c-15.86.31-28.68,5.57-39.22,16.1A54,54,0,0,0,88,131.11a53.37,53.37,0,0,0,6.79,36.13c6.3,10.84,15.81,18.84,28.25,23.78l1.78.71-.35,1.88L122.74,203l-.47,2.5-2.44-.67c-12.91-3.58-25.37-12.65-34.18-24.88A67.89,67.89,0,0,1,73.3,130.87,68.9,68.9,0,0,1,97.05,86.79a68.21,68.21,0,0,1,44-16.42c1.13,0,2.26,0,3.38.09Z"/></svg>