<svg xmlns="http://www.w3.org/2000/svg" viewBox="0 0 283.46 283.46"><defs><style>.cls-1{fill:lime;}.cls-2{fill:#112bf4;}</style></defs><g id="Icon"><path class="cls-1" d="M188.43,109.69a59.75,59.75,0,0,0-27.08-28.24L168,45.11l.37-2-2-.36-4.88-.91-3-.56-2-.37-.36,2L137.41,144.75,122,228.1l-.36,2,2,.37,1.78.33,6.13,1.16,2,.37.36-2,6.23-33.63.46-2.49c32.73-4.42,48.72-28.63,52.47-48.26A60.35,60.35,0,0,0,188.43,109.69ZM181,141.47c-3.43,23-21.65,37.08-38,39.42l4.26-23,11.63-63C172.31,102.17,184.17,120.27,181,141.47Z"/><path class="cls-2" d="M138.54,75.53l-.25,2.12c-.25,2.17-.66,4.23-1.09,6.42-.13.64-.26,1.29-.38,1.94l-.31,1.6-1.62,0c-13.61.25-24.63,4.78-33.68,13.82a47.13,47.13,0,0,0-7.42,57.06c5.42,9.31,13.58,16.18,24.26,20.42l1.53.61-.3,1.61-1.11,6.07-.37,2-.4,2.15-2.1-.59c-11.08-3.07-21.78-10.85-29.35-21.36a58.31,58.31,0,0,1-10.59-42.15,59.16,59.16,0,0,1,58.15-51.94c1,0,1.94,0,2.9.08Z"/></g></svg>