<?xml version="1.0" encoding="utf-8"?>
<!-- Generator: Adobe Illustrator 26.1.0, SVG Export Plug-In . SVG Version: 6.00 Build 0)  -->
<svg version="1.1" id="Layer_1" xmlns="http://www.w3.org/2000/svg" xmlns:xlink="http://www.w3.org/1999/xlink" x="0px" y="0px"
	 viewBox="0 0 560 288" style="enable-background:new 0 0 560 288;" xml:space="preserve">
<style type="text/css">
	.st0{fill:#112CF0;}
	.st1{fill:#00FF00;}
	.st2{fill:#112CF2;}
	.st3{fill:#FFFFFF;}
</style>
<g id="Logo">
	<g id="Text">
		<path class="st0" d="M249.5,117.1l-1.4,8.1c-6.1,3-12.7,4.5-19.5,4.4c-5.7,0-10.4-1.2-14-3.5c-3.6-2.3-6.3-5.6-7.8-9.5
			c-1.6-4.2-2-8.7-1.2-13.1c1.3-7.5,5.4-14.2,11.4-18.9c5.9-5,13.4-7.7,21.1-7.7c6,0.1,11.9,1.6,17.3,4.2L254,89
			c-5-3.3-10.8-5.1-16.7-5.2c-5.7-0.1-11.3,1.9-15.7,5.6c-4.4,3.5-7.4,8.5-8.3,14c-1,5.6,0.1,10.3,3.3,13.9
			c3.2,3.6,7.8,5.4,13.7,5.4C236.5,122.8,242.9,120.9,249.5,117.1z"/>
		<path class="st0" d="M301.8,77.6h7.4l-9.1,51.4h-7.4l3.9-22.4h-28.9l-3.9,22.4h-7.4l9.1-51.4h7.4L269,99.8h28.9L301.8,77.6z"/>
		<path class="st0" d="M337,77.3h5.2l13.9,51.7h-7.5l-4.2-15.2h-22l-9.1,15.2h-7.6L337,77.3z M342.5,107.2l-5-18.6l-11,18.6H342.5z"
			/>
		<path class="st0" d="M362,129l9-51.4h12.9c5.2,0,9.1,1.3,11.7,3.9c2.6,2.6,3.5,6.1,2.7,10.4c-0.5,2.9-1.7,5.6-3.6,7.8
			c-2,2.2-4.5,3.9-7.3,4.9c1.6,1.2,2.9,2.7,4,4.4c1.9,3.1,3.5,6.4,4.9,9.8c1.3,2.9,2.3,5.1,3.1,6.6l2.1,3.7h-8.8l-1.6-3.4
			c-0.1-0.2-0.2-0.4-0.3-0.6l-1.1-2l-1.6-3.8l-1.8-4c-0.9-1.8-2-3.4-3.3-5c-0.8-1.1-1.8-2-3-2.7c-0.9-0.6-2.6-0.8-5-0.8h-1.9
			l-3.9,22.3H362z M379.5,83.8h-2.2l-2.9,16.2h2.8c3.7,0,6.3-0.3,7.9-1c1.5-0.6,2.8-1.6,3.8-2.9c1-1.3,1.7-2.8,1.9-4.4
			c0.3-1.5,0.1-3-0.5-4.4c-0.6-1.3-1.8-2.3-3.1-2.8C384.6,83.9,382.1,83.7,379.5,83.8z"/>
		<path class="st0" d="M439.5,103.7h17.3l-3.8,21.8c-6.2,2.6-12.8,4-19.6,4.1c-8.5,0-14.9-2.5-19.1-7.5c-4.2-5-5.7-11.1-4.4-18.4
			c1.3-7.6,5.3-14.4,11.3-19.2c5.9-5,13.4-7.7,21.2-7.7c2.7,0,5.4,0.3,8.1,0.9c3.2,0.9,6.3,2,9.3,3.4l-1.3,7.5
			c-5.1-3.4-11.1-5.3-17.3-5.3c-5.6,0-11,2-15.2,5.8c-4.4,3.5-7.3,8.6-8.3,14.1c-1,5.8,0.1,10.6,3.3,14.3s7.8,5.6,13.9,5.6
			c3.7-0.1,7.4-0.8,10.9-2l0.7-0.2l1.9-10.7h-9.9L439.5,103.7z"/>
		<path class="st0" d="M472.2,77.6h29.2l-1.2,6.6h-21.8l-2.8,15.7h21.1l-1.2,6.6h-21.1l-2.8,16h22.5l-1.1,6.5h-29.9L472.2,77.6z"/>
		<path class="st1" d="M200.3,148.1h22.9c5.2,0,9.1,1.5,11.6,4.5c2.5,3,3.5,6.9,2.7,10.7c-0.8,4.3-3.1,8.2-6.5,11
			c-3.7,3.1-8.4,4.7-13.2,4.6h-10.2l-3.7,20.6h-12.8L200.3,148.1z M211.4,157.6l-2.1,11.9h6c5.3,0,8.3-2,9-6c0.4-2.2,0-3.8-1.3-4.7
			s-3.6-1.3-7.1-1.3L211.4,157.6z"/>
		<path class="st1" d="M276.6,147.5c8.8,0,15.4,2.6,19.9,7.9c4.4,5.1,6.2,11.9,4.9,18.5c-1.2,7.1-5.1,13.3-11.5,18.5
			c-6.3,5.2-14.3,8-22.5,7.8c-8.7,0-15.4-2.6-19.9-7.8c-4.6-5.2-6.2-11.4-4.9-18.6c1.2-7,5-13.2,11.4-18.5
			C260.2,150.1,268.3,147.3,276.6,147.5z M269.2,189.6c4.6,0.1,9-1.4,12.5-4.3c3.5-2.9,5.8-6.9,6.5-11.4c0.8-4.7,0-8.5-2.4-11.4
			s-6.1-4.3-11-4.3c-4.6-0.1-9,1.4-12.6,4.3c-3.5,2.9-5.8,6.9-6.5,11.4c-0.8,4.7,0,8.5,2.5,11.4S264.3,189.6,269.2,189.6z"/>
		<path class="st1" d="M345.6,166.7l-21.8,33.5h-5.5l-13.4-52.1h13.6l7.1,28.4l18.2-28.4h10.3l8.2,28.4l17-28.4h13.6l-31.7,52.1
			h-5.5L345.6,166.7z"/>
		<path class="st1" d="M429.3,190.2l-1.7,9.4h-37.9l9.1-51.4h37.4l-1.7,9.4h-24.6l-1.9,10.8h23.5l-1.7,9.4h-23.4l-2.2,12.4
			L429.3,190.2z"/>
		<path class="st1" d="M446.5,148.1h23c5,0,8.8,1.4,11.4,4.3c2.6,2.8,3.7,6.7,2.8,10.5c-1,5.7-4.7,9.9-11,12.6
			c2.4,1.2,4.3,4.3,5.7,9.5c1.4,5.2,2.8,10,4.2,14.6h-14.1c-0.5-1.7-1.4-4.9-2.7-9.7s-2.5-7.8-3.8-9.2c-1.1-1.3-2.7-2-4.4-2h-3.7
			l-3.7,20.9h-12.8L446.5,148.1z M457.7,157.6l-2.1,11.7h6.8c1.9,0.1,3.8-0.5,5.4-1.5c1.4-1,2.4-2.6,2.7-4.4
			c0.7-3.9-1.4-5.8-6.3-5.8H457.7z"/>
	</g>
	<g id="Icon">
		<path class="st1" d="M173.1,111.9c-5.6-12.2-15.1-22.1-27.1-28.2l6.7-36.3l0.4-2l-2-0.4l-4.9-0.9l-3-0.6l-2-0.4l-0.4,2L122.1,147
			l-15.4,83.4l-0.4,2l2,0.4l1.8,0.3l6.1,1.2l2,0.4l0.4-2l6.2-33.6l0.5-2.5c32.7-4.5,48.7-28.7,52.4-48.3
			C180,135.9,178.4,123.2,173.1,111.9z M165.7,143.7c-3.4,23-21.6,37.1-38,39.4l4.3-23L143.6,97C157,104.4,168.9,122.5,165.7,143.7z
			"/>
		<path class="st2" d="M123.3,77.8l-0.3,2.1c-0.2,2.2-0.7,4.2-1.1,6.4c-0.1,0.6-0.2,1.3-0.4,1.9l-0.3,1.6h-1.6
			C106,90.1,95,94.7,85.9,103.7c-7.1,7-11.7,16.1-13.3,26c-1.8,10.7,0.3,21.7,5.8,31c5.4,9.3,13.6,16.2,24.3,20.4l1.5,0.6l-0.3,1.6
			l-1.1,6.1l-0.4,2l-0.4,2.1L100,193c-11.1-3-21.8-10.8-29.3-21.3c-8.8-12.2-12.6-27.3-10.6-42.1c1.8-14.7,9.1-28.2,20.4-37.8
			c10.5-9,23.9-14,37.8-14.1c1,0,1.9,0,2.9,0.1L123.3,77.8z"/>
	</g>
</g>
<g id="Icon-2">
	<path class="st3" d="M191,211.9c0.2,0,0.6-0.1,0.9-0.1s0.8-0.1,1.1-0.1c0.4,0,0.9,0,1.3,0.1c0.4,0.1,0.7,0.2,1,0.4
		c0.3,0.2,0.5,0.5,0.6,0.8c0.2,0.3,0.2,0.7,0.2,1.1c0,0.7-0.2,1.4-0.6,2c-0.2,0.2-0.4,0.5-0.6,0.6c-0.2,0.2-0.5,0.3-0.7,0.4
		c0.5,0.1,1,0.4,1.3,0.8c0.3,0.5,0.5,1,0.5,1.6c0,0.6-0.1,1.2-0.4,1.8c-0.2,0.5-0.6,0.9-1,1.2c-0.4,0.3-0.9,0.5-1.4,0.7
		c-0.6,0.1-1.2,0.2-1.8,0.2c-0.4,0-0.7,0-1.1,0s-0.8-0.1-1.1-0.1L191,211.9z M190.8,221.9h0.4h0.5c0.3,0,0.7,0,1-0.1
		c0.3-0.1,0.6-0.2,0.9-0.4c0.3-0.2,0.5-0.4,0.7-0.7c0.2-0.4,0.3-0.8,0.3-1.2c0-0.3,0-0.5-0.1-0.8c-0.1-0.2-0.2-0.4-0.4-0.5
		c-0.2-0.1-0.4-0.2-0.6-0.3c-0.3-0.1-0.5-0.1-0.8-0.1h-1.1L190.8,221.9z M192.7,216.6c0.6,0,1.1-0.2,1.5-0.6c0.4-0.4,0.6-1,0.6-1.6
		c0-0.4-0.1-0.8-0.4-1.1c-0.4-0.2-0.8-0.3-1.2-0.3c-0.2,0-0.3,0-0.5,0h-0.4l-0.6,3.5L192.7,216.6z"/>
	<path class="st3" d="M200.2,219.9c0,0.6,0.2,1.1,0.5,1.6c0.4,0.4,0.8,0.5,1.3,0.5c0.4,0,0.7,0,1.1-0.1c0.3-0.1,0.6-0.2,0.9-0.3
		c0.1,0.2,0.2,0.4,0.2,0.6c0,0.2,0,0.4,0,0.7c-0.2,0.1-0.3,0.1-0.5,0.2c-0.2,0.1-0.4,0.1-0.6,0.2c-0.2,0.1-0.4,0.1-0.7,0.1
		c-0.2,0-0.4,0-0.6,0c-0.5,0-1-0.1-1.4-0.2c-0.4-0.1-0.7-0.4-0.9-0.7c-0.2-0.3-0.4-0.6-0.5-1c-0.1-0.4-0.2-0.8-0.2-1.3
		c0-0.6,0.1-1.3,0.3-1.9c0.2-0.6,0.5-1.2,0.8-1.7c0.3-0.5,0.8-0.9,1.3-1.2c0.5-0.3,1.1-0.5,1.7-0.4c0.5,0,1.1,0.1,1.5,0.5
		c0.4,0.3,0.6,0.8,0.6,1.4c0,0.4-0.1,0.8-0.3,1.2c-0.2,0.3-0.5,0.6-0.8,0.9c-0.4,0.3-0.8,0.5-1.3,0.6c-0.5,0.2-1.1,0.3-1.6,0.4
		L200.2,219.9z M201.1,218.6c0.4-0.1,0.8-0.2,1.2-0.3c0.3-0.1,0.5-0.2,0.8-0.4c0.3-0.2,0.5-0.6,0.5-1c0-0.2-0.1-0.4-0.2-0.6
		c-0.2-0.2-0.4-0.2-0.6-0.2c-0.3,0-0.6,0.1-0.8,0.2c-0.3,0.2-0.5,0.4-0.7,0.6c-0.2,0.3-0.4,0.5-0.5,0.8c-0.1,0.3-0.2,0.7-0.3,1
		L201.1,218.6z"/>
	<path class="st3" d="M209.1,219.4c-0.2-0.1-0.3-0.2-0.4-0.2c-0.2-0.1-0.3-0.2-0.4-0.4c-0.1-0.2-0.3-0.3-0.3-0.6
		c-0.1-0.3-0.1-0.5-0.1-0.8c0-0.3,0.1-0.7,0.2-1c0.1-0.3,0.3-0.6,0.6-0.8c0.3-0.2,0.6-0.4,0.9-0.5c0.4-0.1,0.8-0.2,1.2-0.2
		c0.4,0,0.7,0,1.1,0.1c0.3,0.1,0.6,0.2,0.8,0.3c-0.1,0.4-0.2,0.8-0.4,1.2c-0.2-0.1-0.4-0.2-0.7-0.3c-0.3-0.1-0.6-0.1-0.9-0.1
		c-0.3,0-0.7,0.1-1,0.2c-0.3,0.2-0.4,0.5-0.4,0.8c0,0.2,0.1,0.4,0.2,0.6c0.2,0.2,0.4,0.4,0.7,0.5l0.3,0.2l0.6,0.3
		c0.2,0.1,0.4,0.2,0.5,0.4c0.2,0.2,0.3,0.3,0.4,0.5c0.1,0.2,0.2,0.5,0.1,0.8c0,0.4-0.1,0.9-0.2,1.3c-0.2,0.3-0.4,0.7-0.7,0.9
		c-0.3,0.2-0.6,0.4-1,0.5c-0.4,0.1-0.8,0.2-1.3,0.2c-0.4,0-0.7,0-1.1-0.1c-0.3,0-0.6-0.1-0.9-0.3c0-0.2,0-0.4,0.1-0.6
		c0.1-0.2,0.1-0.4,0.2-0.6c0.3,0.1,0.6,0.2,0.9,0.3c0.3,0.1,0.6,0.1,0.9,0.1c0.2,0,0.4,0,0.7-0.1c0.2,0,0.4-0.1,0.5-0.2
		c0.2-0.1,0.3-0.2,0.4-0.4c0.1-0.2,0.1-0.4,0.1-0.6c0-0.3-0.1-0.5-0.2-0.7c-0.2-0.2-0.5-0.3-0.7-0.4L209.1,219.4z"/>
	<path class="st3" d="M216,216.3h-1.1c0-0.2,0-0.4,0-0.6c0-0.2,0.1-0.4,0.1-0.6h1.1c0-0.3,0.1-0.6,0.1-0.8c0-0.3,0.1-0.6,0.1-0.9
		v-0.2c0.2-0.1,0.4-0.2,0.7-0.2c0.2,0,0.5-0.1,0.7-0.1c0,0.1,0,0.2,0,0.3c0,0.1,0,0.2,0,0.3c0,0.4,0,0.8-0.1,1.2l-0.1,0.5h1.8
		c0,0.2,0,0.4,0,0.6c0,0.2-0.1,0.4-0.1,0.6h-1.8l-0.6,3.4c0,0.2-0.1,0.5-0.1,0.7c0,0.2-0.1,0.5-0.1,0.7c0,0.2,0.1,0.5,0.2,0.6
		c0.2,0.1,0.4,0.2,0.6,0.2c0.1,0,0.3,0,0.4,0c0.1,0,0.3-0.1,0.4-0.1c0,0.1,0.1,0.2,0.1,0.3c0,0.1,0,0.3,0,0.4v0.2c0,0.1,0,0.2,0,0.2
		c-0.2,0.1-0.3,0.1-0.5,0.1c-0.2,0-0.4,0.1-0.6,0.1c-0.3,0-0.6,0-0.8-0.1c-0.2,0-0.4-0.1-0.6-0.3c-0.2-0.1-0.3-0.3-0.4-0.5
		c-0.1-0.3-0.2-0.6-0.1-0.9c0-0.2,0-0.4,0.1-0.6c0-0.2,0.1-0.4,0.1-0.7L216,216.3z"/>
	<path class="st3" d="M225.1,217.9c0,0.2,0,0.5-0.1,0.7c0,0.2-0.1,0.5-0.2,0.7h-3.6c0-0.5,0.1-1,0.2-1.4L225.1,217.9z"/>
	<path class="st3" d="M229.4,211.9h0.4h0.4h0.4h0.4l-1.8,11.2l-0.4,0.1h-0.4H228l-0.3-0.1L229.4,211.9z"/>
	<path class="st3" d="M233.8,218.5c0.1-0.6,0.2-1.2,0.2-1.6c0.1-0.4,0.1-0.8,0.1-1.2c0-0.1,0-0.2,0-0.3c0-0.1,0-0.2,0-0.3l0.3-0.1
		h0.6l0.3,0.1c0,0.1,0,0.2,0.1,0.3c0,0.1,0,0.2,0,0.4c0,0.2,0,0.4,0,0.6c0,0.2,0,0.4-0.1,0.5c0.1-0.2,0.2-0.5,0.4-0.7
		c0.2-0.2,0.4-0.5,0.6-0.6c0.2-0.2,0.5-0.3,0.8-0.5c0.3-0.1,0.6-0.2,0.9-0.2c0.5,0,1,0.2,1.3,0.5c0.4,0.4,0.5,1,0.5,1.5
		c0,0.2,0,0.3,0,0.5c0,0.2,0,0.4-0.1,0.6l-0.8,5.1l-0.4,0.1h-0.4h-0.3l-0.3-0.1l0.8-4.8c0-0.2,0-0.3,0.1-0.5c0-0.1,0-0.3,0-0.4
		c0-0.3-0.1-0.6-0.3-0.9c-0.2-0.2-0.4-0.3-0.7-0.3c-0.3,0-0.5,0.1-0.8,0.3c-0.3,0.2-0.5,0.5-0.7,0.8c-0.2,0.4-0.4,0.8-0.6,1.2
		c-0.2,0.5-0.3,1.1-0.4,1.7l-0.5,2.9l-0.4,0.1h-0.4h-0.4l-0.3-0.1L233.8,218.5z"/>
	<path class="st3" d="M246.6,217.9c0,0.2,0,0.5-0.1,0.7c0,0.2-0.1,0.5-0.2,0.7h-3.6c0-0.5,0.1-1,0.2-1.4L246.6,217.9z"/>
	<path class="st3" d="M255.4,221.4c0.2,0.4,0.3,0.9,0.3,1.3c-0.2,0.1-0.4,0.2-0.6,0.2l-0.7,0.2c-0.2,0-0.4,0.1-0.7,0.1h-0.6
		c-1.1,0.1-2.1-0.4-2.9-1.1c-0.7-0.9-1.1-2-1-3.2c0-0.9,0.1-1.8,0.4-2.7c0.2-0.8,0.6-1.6,1.1-2.3c0.5-0.7,1.1-1.2,1.7-1.6
		c0.7-0.4,1.6-0.6,2.4-0.6c0.4,0,0.9,0,1.3,0.1c0.3,0.1,0.6,0.2,0.9,0.3c0,0.2-0.1,0.4-0.2,0.7c-0.1,0.2-0.2,0.4-0.3,0.6
		c-0.3-0.1-0.5-0.2-0.8-0.2c-0.3-0.1-0.6-0.1-0.9-0.1c-0.6,0-1.3,0.2-1.8,0.5c-0.5,0.3-0.9,0.8-1.2,1.3c-0.3,0.6-0.6,1.2-0.7,1.8
		c-0.2,0.7-0.2,1.4-0.2,2.1c-0.1,0.8,0.2,1.6,0.7,2.3c0.5,0.5,1.2,0.8,1.9,0.8c0.3,0,0.7,0,1-0.1
		C254.8,221.7,255.1,221.6,255.4,221.4z"/>
	<path class="st3" d="M259.8,214.9c0.1-0.6,0.2-1.1,0.2-1.5s0.1-0.8,0.1-1.1V212c0-0.1,0-0.2,0-0.3l0.4-0.1h0.4h0.3l0.3,0.1
		c0,0.1,0,0.2,0,0.3v0.3c0,0.1,0,0.2,0,0.4s0,0.3,0,0.5s0,0.4-0.1,0.6s-0.1,0.4-0.1,0.5l-1.1,6.6c0,0.1,0,0.3,0,0.4
		c0,0.1,0,0.3,0.1,0.4c0,0.1,0.1,0.2,0.2,0.2c0.1,0,0.1,0.1,0.2,0.1h0.2c0.1,0,0.2,0,0.3,0l0.3-0.1c0.1,0.3,0.1,0.7,0.1,1
		c0,0,0,0.1,0,0.1c0,0,0,0.1,0,0.1c-0.2,0.1-0.3,0.1-0.5,0.1c-0.2,0-0.4,0-0.6,0c-0.2,0-0.5,0-0.7-0.1c-0.2,0-0.4-0.1-0.5-0.3
		c-0.2-0.1-0.3-0.3-0.3-0.5c-0.1-0.3-0.1-0.6-0.1-0.8c0-0.2,0-0.4,0-0.6l0.1-0.6L259.8,214.9z"/>
	<path class="st3" d="M270.2,219.7c-0.1,0.6-0.2,1.1-0.2,1.6c-0.1,0.4-0.1,0.8-0.1,1.2c0,0.1,0,0.2,0,0.3c0,0.1,0,0.2,0,0.3h-0.3
		h-0.3h-0.3h-0.3c0-0.1,0-0.2,0-0.4s0-0.3,0-0.4s0-0.3,0-0.5s0-0.4,0.1-0.5c-0.2,0.5-0.6,1-1,1.3c-0.2,0.2-0.5,0.4-0.8,0.5
		c-0.3,0.1-0.6,0.2-0.9,0.2c-0.6,0-1.1-0.2-1.4-0.7c-0.3-0.6-0.5-1.2-0.5-1.9c0-0.7,0.1-1.5,0.3-2.1c0.2-0.7,0.5-1.3,0.9-1.9
		c0.4-0.5,0.9-1,1.5-1.3c0.6-0.3,1.4-0.5,2.1-0.5c0.3,0,0.7,0,1,0.1c0.3,0,0.6,0.1,0.9,0.2L270.2,219.7z M269.4,216.3
		c-0.1,0-0.2-0.1-0.4-0.1h-0.4c-0.4,0-0.9,0.1-1.3,0.4c-0.4,0.3-0.7,0.6-1,1c-0.3,0.4-0.5,0.9-0.6,1.4c-0.1,0.5-0.2,1-0.2,1.6
		c0,0.4,0.1,0.8,0.2,1.2c0.1,0.3,0.4,0.4,0.7,0.4c0.3,0,0.6-0.1,0.9-0.3c0.3-0.2,0.6-0.5,0.8-0.9c0.2-0.4,0.4-0.8,0.6-1.3
		c0.2-0.5,0.3-1,0.4-1.6L269.4,216.3z"/>
	<path class="st3" d="M275.3,219.4c-0.2-0.1-0.3-0.2-0.5-0.2c-0.2-0.1-0.3-0.2-0.4-0.4c-0.1-0.2-0.3-0.3-0.3-0.6
		c-0.1-0.3-0.1-0.5-0.1-0.8c0-0.3,0.1-0.7,0.2-1c0.1-0.3,0.3-0.6,0.6-0.8c0.3-0.2,0.6-0.4,0.9-0.5c0.4-0.1,0.8-0.2,1.2-0.2
		c0.4,0,0.7,0,1.1,0.1c0.3,0.1,0.6,0.2,0.8,0.3c-0.1,0.4-0.2,0.8-0.4,1.2c-0.2-0.1-0.4-0.2-0.7-0.3c-0.3-0.1-0.6-0.1-0.9-0.1
		c-0.3,0-0.7,0.1-1,0.2c-0.3,0.2-0.4,0.5-0.4,0.8c0,0.2,0.1,0.4,0.2,0.6c0.2,0.2,0.4,0.4,0.7,0.5l0.3,0.2l0.6,0.3
		c0.2,0.1,0.4,0.2,0.5,0.4c0.2,0.2,0.3,0.3,0.4,0.5c0.1,0.2,0.2,0.5,0.1,0.8c0,0.4-0.1,0.9-0.2,1.3c-0.2,0.3-0.4,0.6-0.7,0.9
		c-0.3,0.2-0.6,0.4-1,0.5c-0.4,0.1-0.8,0.2-1.3,0.2c-0.4,0-0.7,0-1.1-0.1c-0.3-0.1-0.6-0.1-0.9-0.3c0-0.2,0.1-0.4,0.1-0.6
		c0.1-0.2,0.1-0.4,0.2-0.6c0.3,0.1,0.6,0.2,0.9,0.3c0.3,0.1,0.6,0.1,0.9,0.1c0.2,0,0.4,0,0.7-0.1c0.2,0,0.4-0.1,0.5-0.2
		c0.2-0.1,0.3-0.2,0.4-0.4c0.1-0.2,0.1-0.4,0.1-0.6c0-0.3-0.1-0.5-0.3-0.7c-0.2-0.2-0.5-0.3-0.7-0.4L275.3,219.4z"/>
	<path class="st3" d="M282.8,219.4c-0.2-0.1-0.3-0.2-0.5-0.2c-0.2-0.1-0.3-0.2-0.4-0.4c-0.1-0.2-0.3-0.3-0.3-0.6
		c-0.1-0.3-0.1-0.5-0.1-0.8c0-0.3,0.1-0.7,0.2-1c0.1-0.3,0.3-0.6,0.6-0.8c0.3-0.2,0.6-0.4,0.9-0.5c0.4-0.1,0.8-0.2,1.2-0.2
		c0.4,0,0.7,0,1.1,0.1c0.3,0.1,0.6,0.2,0.8,0.3c-0.1,0.4-0.2,0.8-0.4,1.2c-0.2-0.1-0.4-0.2-0.7-0.3c-0.3-0.1-0.6-0.1-0.9-0.1
		c-0.3,0-0.7,0.1-1,0.2c-0.3,0.2-0.4,0.5-0.4,0.8c0,0.2,0.1,0.4,0.2,0.6c0.2,0.2,0.4,0.4,0.7,0.5l0.3,0.2l0.6,0.3
		c0.2,0.1,0.4,0.2,0.5,0.4c0.2,0.2,0.3,0.3,0.4,0.5c0.1,0.2,0.2,0.5,0.1,0.8c0,0.4-0.1,0.9-0.2,1.3c-0.2,0.3-0.4,0.7-0.7,0.9
		c-0.3,0.2-0.6,0.4-1,0.5c-0.4,0.1-0.8,0.2-1.3,0.2c-0.4,0-0.7,0-1.1-0.1c-0.3-0.1-0.6-0.1-0.9-0.3c0-0.2,0.1-0.4,0.1-0.6
		c0.1-0.2,0.1-0.4,0.2-0.6c0.3,0.1,0.6,0.2,0.9,0.3c0.3,0.1,0.6,0.1,0.9,0.1c0.2,0,0.4,0,0.7-0.1c0.2,0,0.4-0.1,0.5-0.2
		c0.2-0.1,0.3-0.2,0.4-0.4c0.1-0.2,0.1-0.4,0.1-0.6c0-0.3-0.1-0.6-0.3-0.8c-0.2-0.2-0.5-0.3-0.7-0.4L282.8,219.4z"/>
	<path class="st3" d="M295,211.9h5.4c0,0.5-0.1,1-0.2,1.4h-3.9l-0.5,3.2h3.1c0,0.5-0.1,1-0.2,1.4h-3.1c-0.1,0.6-0.2,1.3-0.3,1.9
		s-0.2,1.3-0.3,1.9h4.1c0,0.3-0.1,0.5-0.1,0.7c0,0.2-0.1,0.5-0.1,0.7h-5.5L295,211.9z"/>
	<path class="st3" d="M302.8,218.5c0.1-0.6,0.2-1.2,0.2-1.6c0.1-0.4,0.1-0.8,0.1-1.2c0-0.1,0-0.2,0-0.3c0-0.1,0-0.2,0-0.3l0.3-0.1
		h0.7l0.3,0.1c0,0.1,0,0.2,0,0.3c0,0.1,0,0.2,0,0.4c0,0.2,0,0.4,0,0.6c0,0.2,0,0.4-0.1,0.5c0.1-0.2,0.2-0.5,0.4-0.7
		c0.2-0.2,0.4-0.5,0.6-0.6c0.2-0.2,0.5-0.3,0.8-0.5c0.3-0.1,0.6-0.2,0.9-0.2c0.5,0,1,0.1,1.3,0.5c0.4,0.4,0.5,1,0.5,1.5
		c0,0.2,0,0.3,0,0.5c0,0.2,0,0.4-0.1,0.6l-0.8,5.1l-0.4,0.1h-0.4h-0.4l-0.3-0.1l0.8-4.8c0-0.2,0-0.3,0.1-0.5c0-0.1,0-0.3,0-0.4
		c0-0.3-0.1-0.6-0.3-0.9c-0.2-0.2-0.4-0.3-0.7-0.3c-0.3,0-0.5,0.1-0.8,0.3c-0.3,0.2-0.5,0.5-0.7,0.8c-0.2,0.4-0.4,0.8-0.6,1.2
		c-0.2,0.5-0.3,1.1-0.4,1.7l-0.5,2.9l-0.4,0.1h-0.4h-0.4l-0.3-0.1L302.8,218.5z"/>
	<path class="st3" d="M313,219.9c0,0.6,0.2,1.1,0.5,1.6c0.3,0.4,0.8,0.6,1.4,0.5c0.4,0,0.7,0,1.1-0.1c0.3-0.1,0.6-0.2,0.9-0.3
		c0.1,0.2,0.2,0.4,0.2,0.6c0,0.2,0,0.4,0,0.7c-0.2,0.1-0.3,0.1-0.5,0.2c-0.2,0.1-0.4,0.1-0.6,0.2c-0.2,0.1-0.5,0.1-0.7,0.1
		c-0.2,0-0.4,0-0.6,0c-0.5,0-1-0.1-1.4-0.2c-0.4-0.1-0.7-0.4-0.9-0.7c-0.2-0.3-0.4-0.6-0.5-1c-0.1-0.4-0.2-0.8-0.2-1.3
		c0-0.6,0.1-1.3,0.3-1.9c0.2-0.6,0.5-1.2,0.8-1.7c0.4-0.5,0.8-0.9,1.3-1.2c0.5-0.3,1.1-0.5,1.7-0.4c0.5,0,1.1,0.1,1.5,0.5
		c0.4,0.3,0.6,0.8,0.5,1.4c0,0.4-0.1,0.8-0.3,1.2c-0.2,0.3-0.5,0.6-0.8,0.9c-0.4,0.3-0.8,0.5-1.3,0.6c-0.5,0.2-1.1,0.3-1.6,0.4
		L313,219.9z M313.9,218.6c0.4-0.1,0.8-0.2,1.2-0.3c0.3-0.1,0.5-0.2,0.8-0.4c0.3-0.2,0.5-0.6,0.5-1c0-0.2-0.1-0.4-0.2-0.6
		c-0.2-0.2-0.4-0.2-0.6-0.2c-0.3,0-0.6,0.1-0.8,0.2c-0.3,0.2-0.5,0.4-0.7,0.6c-0.2,0.3-0.4,0.5-0.5,0.8c-0.1,0.3-0.2,0.7-0.3,1
		L313.9,218.6z"/>
	<path class="st3" d="M320,223.1c0.1-0.6,0.2-1.3,0.4-2.1s0.2-1.4,0.4-2.1s0.2-1.3,0.3-1.9c0.1-0.4,0.1-0.9,0.1-1.4
		c0-0.1,0-0.2,0-0.3c0-0.1,0-0.2,0-0.3h0.3h0.7h0.3c0,0.1,0,0.2,0,0.3s0,0.2,0,0.4c0,0.2,0,0.5,0,0.7c0.1-0.2,0.3-0.4,0.4-0.5
		c0.1-0.2,0.3-0.3,0.5-0.4c0.2-0.1,0.4-0.2,0.6-0.3c0.2-0.1,0.5-0.1,0.7-0.1h0.2c0.1,0,0.1,0,0.2,0.1c0,0.2,0,0.5-0.1,0.7
		c0,0.2-0.1,0.5-0.2,0.7h-0.2h-0.2c-0.6,0-1.2,0.3-1.5,0.8c-0.5,0.7-0.8,1.5-0.9,2.3l-0.6,3.6c-0.2,0-0.4,0-0.6,0.1h-0.4L320,223.1z
		"/>
	<path class="st3" d="M331.1,221.3c-0.2,0.5-0.6,1-1,1.3c-0.2,0.2-0.5,0.4-0.8,0.5c-0.3,0.1-0.6,0.2-0.9,0.2c-0.6,0-1.1-0.2-1.4-0.7
		c-0.3-0.6-0.5-1.2-0.5-1.9c0-0.7,0.1-1.5,0.3-2.1c0.2-0.7,0.5-1.3,0.9-1.9c0.4-0.5,0.9-1,1.5-1.3c0.6-0.3,1.4-0.5,2.1-0.5
		c0.4,0,0.7,0,1,0.1c0.3,0,0.6,0.1,0.9,0.2c-0.2,1.3-0.4,2.6-0.6,3.9s-0.4,2.6-0.6,3.9c-0.1,0.6-0.3,1.2-0.6,1.8
		c-0.5,0.9-1.3,1.6-2.3,1.9c-0.5,0.1-1.1,0.2-1.6,0.2c-0.3,0-0.7,0-1-0.1c-0.3,0-0.5-0.1-0.8-0.2c0-0.4,0.1-0.9,0.3-1.2l0.7,0.2
		c0.3,0.1,0.6,0.1,0.8,0.1c0.4,0,0.8,0,1.1-0.1c0.3-0.1,0.6-0.2,0.9-0.5c0.3-0.2,0.5-0.5,0.6-0.9c0.2-0.4,0.3-0.9,0.4-1.3
		L331.1,221.3z M331.9,216.3c-0.3-0.1-0.5-0.1-0.8-0.1c-0.4,0-0.9,0.1-1.3,0.4c-0.4,0.3-0.7,0.6-1,1c-0.3,0.4-0.5,0.9-0.6,1.4
		c-0.1,0.5-0.2,1-0.2,1.6c0,0.4,0.1,0.8,0.2,1.2c0.1,0.3,0.4,0.4,0.7,0.4c0.3,0,0.6-0.1,0.9-0.3c0.3-0.2,0.6-0.5,0.7-0.9
		c0.2-0.4,0.4-0.8,0.6-1.3c0.2-0.5,0.3-1.1,0.4-1.6L331.9,216.3z"/>
	<path class="st3" d="M338.3,222.3c0.3-0.7,0.6-1.4,0.8-2s0.5-1.1,0.6-1.6s0.4-0.9,0.5-1.4l0.4-1.2c0.1-0.2,0.1-0.3,0.1-0.5
		c0-0.1,0-0.2,0-0.4c0,0,0-0.1,0-0.1s0-0.1,0-0.1c0.2,0,0.4-0.1,0.6-0.1h0.9c0,0,0,0.1,0,0.1v0.1c0,0.3-0.1,0.6-0.1,0.8
		c-0.1,0.3-0.2,0.6-0.3,0.9c-0.4,1-0.9,2.1-1.4,3.2s-1,2.4-1.6,3.8c-0.2,0.5-0.5,1-0.8,1.5c-0.2,0.3-0.4,0.6-0.7,0.9
		c-0.2,0.2-0.5,0.3-0.7,0.4c-0.3,0.1-0.5,0.1-0.8,0.1c-0.3,0-0.7,0-1-0.1c0-0.2,0-0.4,0.1-0.7c0-0.2,0.1-0.4,0.2-0.5
		c0.1,0,0.2,0.1,0.3,0.1c0.1,0,0.2,0,0.3,0c0.1,0,0.3,0,0.4-0.1c0.2-0.1,0.3-0.2,0.5-0.3c0.2-0.2,0.4-0.5,0.5-0.8
		c0.2-0.5,0.5-0.9,0.6-1.4h-0.2h-0.5h-0.2c-0.2-1.3-0.3-2.7-0.5-4l-0.5-4c0.1,0,0.2,0,0.4-0.1h0.4h0.4c0.1,0,0.2,0,0.4,0.1
		L338.3,222.3z"/>
	<path class="st3" d="M348.9,221.4c0.4,0.1,0.7,0.2,1,0.4c0.4,0.1,0.7,0.1,1.1,0.1c0.7,0,1.3-0.2,1.9-0.6c0.4-0.4,0.7-1,0.6-1.6
		c0-0.4-0.1-0.8-0.4-1.1c-0.3-0.4-0.7-0.7-1.1-0.9c-0.3-0.2-0.6-0.4-0.9-0.6c-0.2-0.2-0.5-0.4-0.6-0.6c-0.2-0.2-0.3-0.5-0.4-0.7
		c-0.1-0.3-0.2-0.6-0.1-0.9c0-0.5,0.1-0.9,0.3-1.3c0.2-0.4,0.4-0.7,0.7-1c0.3-0.3,0.7-0.5,1.1-0.7c0.5-0.2,1-0.2,1.5-0.2
		c0.4,0,0.9,0,1.3,0.1c0.3,0.1,0.7,0.2,1,0.3c0,0.2-0.1,0.5-0.2,0.7c-0.1,0.2-0.2,0.5-0.3,0.7c-0.3-0.1-0.5-0.2-0.8-0.3
		c-0.3-0.1-0.7-0.1-1-0.1c-0.3,0-0.6,0-0.8,0.1c-0.2,0.1-0.5,0.1-0.7,0.3c-0.2,0.1-0.3,0.3-0.4,0.5c-0.1,0.2-0.2,0.5-0.2,0.7
		c0,0.4,0.1,0.7,0.3,1c0.3,0.3,0.7,0.6,1,0.8c0.4,0.2,0.7,0.4,1,0.6c0.3,0.2,0.5,0.4,0.7,0.6c0.2,0.2,0.3,0.5,0.5,0.8
		c0.1,0.3,0.2,0.7,0.2,1c0,0.5-0.1,1.1-0.3,1.6c-0.2,0.5-0.5,0.9-0.8,1.2c-0.4,0.3-0.8,0.6-1.3,0.8c-0.6,0.2-1.1,0.3-1.7,0.3
		c-0.5,0-0.9,0-1.4-0.1c-0.4-0.1-0.8-0.2-1.1-0.4C348.5,222.3,348.7,221.8,348.9,221.4z"/>
	<path class="st3" d="M359,216.3h-1.1c0-0.2,0-0.4,0-0.6c0-0.2,0.1-0.4,0.1-0.6h1.1c0-0.3,0.1-0.6,0.1-0.8c0-0.3,0.1-0.6,0.1-0.9
		v-0.2c0.2-0.1,0.4-0.2,0.7-0.2c0.2,0,0.5-0.1,0.7-0.1c0,0.1,0,0.2,0,0.3c0,0.1,0,0.2,0,0.3c0,0.4,0,0.8-0.1,1.2l-0.1,0.5h1.8
		c0,0.2,0,0.4,0,0.6c0,0.2-0.1,0.4-0.1,0.6h-1.8l-0.5,3.4c0,0.2-0.1,0.5-0.1,0.7c0,0.2-0.1,0.5-0.1,0.7c0,0.2,0.1,0.5,0.2,0.6
		c0.2,0.1,0.4,0.2,0.6,0.2c0.1,0,0.3,0,0.4,0c0.1,0,0.3-0.1,0.4-0.1c0,0.1,0.1,0.2,0.1,0.3c0,0.1,0,0.3,0,0.4v0.2c0,0.1,0,0.2,0,0.2
		c-0.2,0.1-0.3,0.1-0.5,0.1c-0.2,0-0.4,0.1-0.6,0.1c-0.3,0-0.6,0-0.8-0.1c-0.2,0-0.4-0.1-0.6-0.3c-0.2-0.1-0.3-0.3-0.4-0.5
		c-0.1-0.3-0.2-0.6-0.1-0.9c0-0.2,0-0.4,0-0.6c0-0.2,0.1-0.4,0.1-0.7L359,216.3z"/>
	<path class="st3" d="M366.9,223.3c-0.8,0.1-1.5-0.2-2-0.8c-0.5-0.7-0.7-1.5-0.7-2.3c0-0.6,0.1-1.2,0.2-1.8c0.2-0.6,0.4-1.2,0.7-1.7
		c0.3-0.5,0.8-0.9,1.3-1.3c0.5-0.3,1.2-0.5,1.8-0.5c0.8-0.1,1.5,0.2,2,0.8c0.5,0.7,0.7,1.5,0.7,2.3c0,0.6-0.1,1.2-0.2,1.8
		c-0.1,0.6-0.4,1.2-0.7,1.7c-0.3,0.5-0.8,0.9-1.3,1.3C368.1,223.1,367.5,223.3,366.9,223.3z M367,222.1c0.4,0,0.8-0.1,1.1-0.4
		c0.3-0.3,0.6-0.6,0.8-1c0.2-0.4,0.4-0.9,0.4-1.3c0.1-0.4,0.1-0.9,0.1-1.3c0-0.5-0.1-1-0.4-1.4c-0.2-0.3-0.6-0.5-1-0.5
		c-0.4,0-0.8,0.1-1.1,0.4c-0.3,0.3-0.6,0.6-0.8,1c-0.2,0.4-0.4,0.9-0.4,1.3c-0.1,0.4-0.1,0.9-0.1,1.3c0,0.5,0.1,1,0.4,1.4
		C366.2,221.9,366.6,222.1,367,222.1L367,222.1z"/>
	<path class="st3" d="M373.4,223.1c0.1-0.6,0.2-1.3,0.3-2.1s0.2-1.4,0.4-2.1s0.2-1.3,0.3-1.9c0.1-0.4,0.1-0.9,0.1-1.4
		c0-0.1,0-0.2,0-0.3c0-0.1,0-0.2,0-0.3h0.3h0.6h0.3c0,0.1,0,0.2,0,0.3c0,0.1,0,0.2,0,0.4c0,0.2,0,0.5,0,0.7c0.1-0.2,0.3-0.4,0.4-0.5
		c0.1-0.2,0.3-0.3,0.5-0.4c0.2-0.1,0.4-0.2,0.6-0.3c0.2-0.1,0.5-0.1,0.7-0.1h0.2c0.1,0,0.1,0,0.2,0.1c0,0.2,0,0.5-0.1,0.7
		c0,0.2-0.1,0.5-0.2,0.7h-0.2h-0.2c-0.6,0-1.2,0.3-1.5,0.8c-0.5,0.7-0.8,1.5-0.8,2.3l-0.6,3.6c-0.2,0-0.4,0-0.6,0.1h-0.4
		L373.4,223.1z"/>
	<path class="st3" d="M385.9,219.7c-0.1,0.6-0.2,1.1-0.2,1.6c-0.1,0.4-0.1,0.8-0.1,1.2c0,0.1,0,0.2,0,0.3c0,0.1,0,0.2,0,0.3h-0.3
		h-0.3h-0.3h-0.3c0-0.1,0-0.2,0-0.4s0-0.3,0-0.4c0-0.2,0-0.3,0-0.5c0-0.2,0-0.4,0.1-0.5c-0.1,0.2-0.2,0.5-0.4,0.7
		c-0.2,0.2-0.4,0.5-0.6,0.6c-0.2,0.2-0.5,0.4-0.8,0.5c-0.3,0.1-0.6,0.2-0.9,0.2c-0.6,0-1.1-0.2-1.4-0.7c-0.3-0.6-0.5-1.2-0.5-1.9
		c0-0.7,0.1-1.5,0.3-2.1c0.2-0.7,0.5-1.3,0.9-1.9c0.4-0.5,0.9-1,1.5-1.3c0.6-0.3,1.4-0.5,2.1-0.5c0.3,0,0.7,0,1,0.1
		c0.3,0,0.6,0.1,0.9,0.2L385.9,219.7z M385.1,216.3c-0.1,0-0.2-0.1-0.4-0.1h-0.4c-0.4,0-0.9,0.1-1.3,0.4c-0.4,0.3-0.7,0.6-1,1
		c-0.3,0.4-0.5,0.9-0.6,1.4c-0.1,0.5-0.2,1-0.2,1.6c0,0.4,0.1,0.8,0.2,1.2c0.1,0.3,0.4,0.4,0.7,0.4c0.3,0,0.6-0.1,0.9-0.3
		c0.3-0.2,0.6-0.5,0.8-0.9c0.3-0.4,0.4-0.8,0.6-1.3c0.2-0.5,0.3-1,0.4-1.6L385.1,216.3z"/>
	<path class="st3" d="M393.6,221.3c-0.1,0.2-0.3,0.5-0.4,0.7c-0.2,0.2-0.4,0.5-0.6,0.6c-0.2,0.2-0.5,0.4-0.8,0.5
		c-0.3,0.1-0.6,0.2-0.9,0.2c-0.6,0-1.1-0.2-1.4-0.7c-0.3-0.6-0.5-1.2-0.5-1.9c0-0.7,0.1-1.5,0.3-2.1c0.2-0.7,0.5-1.3,0.9-1.9
		c0.4-0.5,0.9-1,1.5-1.3c0.6-0.3,1.4-0.5,2.1-0.5c0.3,0,0.7,0,1,0.1c0.3,0,0.6,0.1,0.9,0.2c-0.2,1.3-0.4,2.6-0.6,3.9
		s-0.4,2.6-0.6,3.9c-0.1,0.6-0.3,1.2-0.6,1.8c-0.2,0.5-0.6,0.9-1,1.2c-0.4,0.3-0.8,0.5-1.3,0.7c-0.5,0.1-1,0.2-1.6,0.2
		c-0.3,0-0.7,0-1-0.1c-0.3,0-0.5-0.1-0.8-0.2c0-0.4,0.1-0.9,0.3-1.2l0.7,0.2c0.3,0.1,0.6,0.1,0.8,0.1c0.4,0,0.8,0,1.1-0.1
		c0.3-0.1,0.6-0.3,0.9-0.5c0.3-0.2,0.5-0.5,0.6-0.9c0.2-0.4,0.3-0.9,0.4-1.3L393.6,221.3z M394.4,216.3c-0.2-0.1-0.5-0.1-0.8-0.1
		c-0.5,0-0.9,0.1-1.3,0.4c-0.4,0.3-0.7,0.6-1,1c-0.3,0.4-0.5,0.9-0.6,1.4c-0.1,0.5-0.2,1-0.2,1.6c0,0.4,0.1,0.8,0.3,1.2
		c0.1,0.3,0.4,0.4,0.7,0.4c0.3,0,0.6-0.1,0.9-0.3c0.3-0.2,0.5-0.5,0.7-0.9c0.2-0.4,0.4-0.8,0.6-1.3c0.2-0.5,0.3-1.1,0.4-1.6
		L394.4,216.3z"/>
	<path class="st3" d="M399.8,219.9c0,0.6,0.2,1.1,0.5,1.6c0.3,0.4,0.8,0.6,1.4,0.5c0.4,0,0.7,0,1.1-0.1c0.3-0.1,0.6-0.2,0.9-0.3
		c0.1,0.2,0.2,0.4,0.2,0.6c0,0.2,0,0.4,0,0.7c-0.2,0.1-0.3,0.1-0.5,0.2c-0.2,0.1-0.4,0.1-0.6,0.2c-0.2,0.1-0.4,0.1-0.7,0.1
		c-0.2,0-0.4,0-0.6,0c-0.5,0-1-0.1-1.4-0.2c-0.4-0.1-0.7-0.4-0.9-0.7c-0.2-0.3-0.4-0.6-0.5-1c-0.1-0.4-0.2-0.8-0.2-1.3
		c0-0.6,0.1-1.3,0.3-1.9c0.2-0.6,0.5-1.2,0.8-1.7c0.3-0.5,0.8-0.9,1.3-1.2c0.5-0.3,1.1-0.5,1.7-0.4c0.5,0,1.1,0.2,1.5,0.5
		c0.4,0.4,0.6,0.8,0.5,1.4c0,0.4-0.1,0.8-0.3,1.2c-0.2,0.3-0.5,0.6-0.9,0.9c-0.4,0.3-0.8,0.5-1.3,0.6c-0.5,0.2-1.1,0.3-1.6,0.4
		L399.8,219.9z M400.7,218.6c0.4-0.1,0.8-0.2,1.2-0.3c0.3-0.1,0.5-0.2,0.8-0.4c0.3-0.2,0.5-0.6,0.5-1c0-0.2-0.1-0.4-0.2-0.6
		c-0.2-0.2-0.4-0.2-0.7-0.2c-0.3,0-0.6,0.1-0.8,0.2c-0.3,0.2-0.5,0.4-0.7,0.6c-0.2,0.3-0.4,0.5-0.5,0.8c-0.1,0.3-0.2,0.7-0.3,1
		L400.7,218.6z"/>
	<path class="st3" d="M411.4,221.4c0.4,0.1,0.7,0.2,1,0.4c0.4,0.1,0.7,0.1,1.1,0.1c0.7,0,1.3-0.2,1.9-0.6c0.4-0.4,0.7-1,0.6-1.6
		c0-0.4-0.1-0.8-0.4-1.1c-0.3-0.4-0.7-0.7-1.1-0.9c-0.3-0.2-0.6-0.4-0.9-0.6c-0.2-0.2-0.5-0.4-0.6-0.6c-0.2-0.2-0.3-0.5-0.4-0.7
		c-0.1-0.3-0.2-0.6-0.1-0.9c0-0.5,0.1-0.9,0.2-1.3c0.2-0.4,0.4-0.7,0.7-1c0.3-0.3,0.7-0.5,1.1-0.7c0.5-0.2,1-0.2,1.5-0.2
		c0.4,0,0.9,0,1.3,0.1c0.3,0.1,0.7,0.2,1,0.3c0,0.2-0.1,0.5-0.2,0.7c-0.1,0.2-0.2,0.5-0.3,0.7c-0.3-0.1-0.5-0.2-0.8-0.3
		c-0.3-0.1-0.7-0.1-1.1-0.1c-0.3,0-0.6,0-0.8,0.1c-0.2,0.1-0.5,0.1-0.7,0.3c-0.2,0.1-0.3,0.3-0.5,0.5c-0.1,0.2-0.2,0.5-0.2,0.7
		c0,0.4,0.1,0.7,0.3,1c0.3,0.3,0.6,0.6,1,0.8c0.4,0.2,0.7,0.4,0.9,0.6c0.3,0.2,0.5,0.4,0.7,0.6c0.2,0.2,0.3,0.5,0.5,0.8
		c0.1,0.3,0.2,0.7,0.1,1c0,0.5-0.1,1.1-0.3,1.6c-0.2,0.5-0.5,0.9-0.8,1.2c-0.4,0.3-0.8,0.6-1.3,0.8c-0.6,0.2-1.1,0.3-1.7,0.3
		c-0.5,0-0.9,0-1.4-0.1c-0.4-0.1-0.8-0.2-1.1-0.4C410.9,222.3,411.1,221.8,411.4,221.4z"/>
	<path class="st3" d="M423.1,223.3c-0.8,0.1-1.5-0.2-2-0.8c-0.5-0.7-0.7-1.5-0.7-2.3c0-0.6,0.1-1.2,0.2-1.8c0.2-0.6,0.4-1.2,0.7-1.7
		c0.3-0.5,0.8-0.9,1.3-1.3c0.5-0.3,1.2-0.5,1.8-0.5c0.8-0.1,1.5,0.2,2,0.8c0.5,0.7,0.7,1.5,0.7,2.3c0,0.6-0.1,1.2-0.2,1.8
		c-0.2,0.6-0.4,1.2-0.7,1.7c-0.3,0.5-0.8,0.9-1.3,1.3C424.3,223.1,423.7,223.3,423.1,223.3z M423.2,222.1c0.4,0,0.8-0.1,1.1-0.4
		c0.3-0.3,0.6-0.6,0.8-1c0.2-0.4,0.4-0.9,0.4-1.3c0.1-0.4,0.1-0.9,0.1-1.3c0-0.5-0.1-1-0.4-1.4c-0.2-0.3-0.6-0.5-1-0.5
		c-0.4,0-0.8,0.1-1.1,0.4c-0.3,0.3-0.6,0.6-0.8,1c-0.2,0.4-0.3,0.9-0.4,1.3c-0.1,0.4-0.1,0.9-0.1,1.3c0,0.5,0.1,1,0.4,1.4
		C422.5,221.9,422.8,222.1,423.2,222.1z"/>
	<path class="st3" d="M430.9,214.9c0.1-0.6,0.2-1.1,0.2-1.5s0.1-0.8,0.1-1.1V212c0-0.1,0-0.2,0-0.3l0.4-0.1h0.4h0.3l0.3,0.1
		c0,0.1,0,0.2,0,0.3v0.3c0,0.1,0,0.2,0,0.4s0,0.3,0,0.5s0,0.4-0.1,0.6s-0.1,0.4-0.1,0.5l-1.1,6.6c0,0.1,0,0.3,0,0.4
		c0,0.1,0,0.3,0.1,0.4c0,0.1,0.1,0.2,0.2,0.2c0.1,0,0.1,0.1,0.2,0.1h0.2c0.1,0,0.2,0,0.3,0l0.3-0.1c0.1,0.3,0.1,0.7,0.1,1
		c0,0,0,0.1,0,0.1c0,0,0,0.1,0,0.1c-0.2,0.1-0.3,0.1-0.5,0.1c-0.2,0-0.4,0-0.6,0c-0.2,0-0.5,0-0.7-0.1c-0.2,0-0.4-0.1-0.5-0.3
		c-0.2-0.1-0.3-0.3-0.3-0.5c-0.1-0.3-0.1-0.6-0.1-0.8c0-0.2,0-0.4,0-0.6l0.1-0.6L430.9,214.9z"/>
	<path class="st3" d="M436.5,215.1c0.1,0,0.2,0,0.4-0.1h0.4h0.3c0.1,0,0.2,0,0.3,0.1l-0.8,4.8c0,0.3-0.1,0.6-0.1,0.9
		c0,0.3,0.1,0.6,0.3,0.9c0.2,0.2,0.4,0.3,0.7,0.3c0.3,0,0.5-0.1,0.8-0.3c0.3-0.2,0.5-0.5,0.7-0.8c0.2-0.4,0.4-0.8,0.6-1.2
		c0.2-0.5,0.3-1.1,0.4-1.7l0.5-2.9c0.1,0,0.2,0,0.4-0.1h0.4h0.3c0.1,0,0.2,0,0.3,0.1l-0.8,4.6c-0.1,0.6-0.2,1.1-0.2,1.6
		c-0.1,0.4-0.1,0.8-0.1,1.2c0,0.1,0,0.2,0,0.3s0,0.2,0,0.3h-0.3h-0.6h-0.3c0-0.2-0.1-0.5-0.1-0.7c0-0.2,0-0.4,0-0.6
		c0-0.2,0-0.4,0.1-0.5c-0.1,0.2-0.2,0.5-0.4,0.7c-0.2,0.2-0.4,0.5-0.6,0.6c-0.2,0.2-0.5,0.3-0.8,0.5c-0.3,0.1-0.6,0.2-0.9,0.2
		c-0.5,0-1-0.2-1.3-0.5c-0.3-0.4-0.5-1-0.5-1.5c0-0.2,0-0.3,0-0.5c0-0.2,0-0.4,0.1-0.6L436.5,215.1z"/>
	<path class="st3" d="M446,216.3h-1.1c0-0.2,0-0.4,0-0.6c0-0.2,0.1-0.4,0.1-0.6h1.1c0-0.3,0.1-0.6,0.1-0.8c0-0.3,0-0.6,0-0.9v-0.2
		c0.2-0.1,0.4-0.2,0.7-0.2c0.2,0,0.5-0.1,0.7-0.1v0.3v0.3c0,0.4,0,0.8-0.1,1.2l-0.1,0.5h1.8c0,0.2,0,0.4,0,0.6
		c0,0.2-0.1,0.4-0.1,0.6h-1.8l-0.5,3.4c0,0.2-0.1,0.5-0.1,0.7c0,0.2,0,0.5,0,0.7c0,0.2,0.1,0.5,0.2,0.6c0.2,0.1,0.4,0.2,0.6,0.2
		c0.1,0,0.3,0,0.4,0c0.1,0,0.3-0.1,0.4-0.1c0,0.1,0.1,0.2,0.1,0.3c0,0.1,0,0.3,0,0.4v0.2c0,0.1,0,0.2,0,0.2c-0.2,0-0.3,0.1-0.5,0.1
		c-0.2,0-0.4,0.1-0.6,0.1c-0.3,0-0.6,0-0.8-0.1c-0.2,0-0.5-0.1-0.6-0.3c-0.2-0.1-0.3-0.3-0.4-0.5c-0.1-0.3-0.2-0.6-0.1-0.9
		c0-0.2,0-0.4,0-0.6c0-0.2,0.1-0.4,0.1-0.7L446,216.3z"/>
	<path class="st3" d="M452.5,216.3h-0.9c0-0.2,0-0.4,0-0.6c0-0.2,0.1-0.4,0.1-0.6h2.3l-1.3,8c-0.1,0-0.2,0-0.4,0h-0.7
		c-0.1,0-0.2,0-0.3,0L452.5,216.3z M452.5,213.4c0-0.3,0-0.6,0.1-0.9c0-0.3,0.1-0.6,0.2-0.8l0.4-0.1h0.8l0.4,0.1
		c0,0.3,0,0.6-0.1,0.9c0,0.3-0.1,0.6-0.2,0.8c-0.1,0-0.3,0-0.4,0h-0.8C452.8,213.5,452.6,213.5,452.5,213.4L452.5,213.4z"/>
	<path class="st3" d="M459.3,223.3c-0.8,0.1-1.5-0.2-2-0.8c-0.5-0.7-0.7-1.5-0.7-2.3c0-0.6,0.1-1.2,0.2-1.8c0.2-0.6,0.4-1.2,0.7-1.7
		c0.3-0.5,0.8-0.9,1.3-1.3c0.5-0.3,1.2-0.5,1.8-0.5c0.8-0.1,1.5,0.2,2,0.8c0.5,0.7,0.7,1.5,0.7,2.3c0,0.6-0.1,1.2-0.2,1.8
		c-0.2,0.6-0.4,1.2-0.7,1.7c-0.3,0.5-0.8,0.9-1.3,1.3C460.6,223.1,460,223.3,459.3,223.3z M459.5,222.1c0.4,0,0.8-0.1,1.1-0.4
		c0.3-0.3,0.6-0.6,0.8-1c0.2-0.4,0.4-0.9,0.4-1.3c0.1-0.4,0.2-0.9,0.2-1.3c0-0.5-0.1-1-0.4-1.4c-0.2-0.3-0.6-0.5-1-0.5
		c-0.4,0-0.8,0.1-1.1,0.4c-0.3,0.3-0.6,0.6-0.8,1c-0.2,0.4-0.4,0.9-0.4,1.3c-0.1,0.4-0.1,0.9-0.1,1.3c0,0.5,0.1,1,0.4,1.4
		C458.7,221.9,459.1,222.1,459.5,222.1L459.5,222.1z"/>
	<path class="st3" d="M466.7,218.5c0.1-0.6,0.2-1.2,0.2-1.6c0.1-0.4,0.1-0.8,0.1-1.2c0-0.1,0-0.2,0-0.3c0-0.1,0-0.2,0-0.3l0.3-0.1
		h0.6l0.3,0.1c0,0.1,0,0.2,0,0.3c0,0.1,0,0.2,0,0.4c0,0.2,0,0.4,0,0.6c0,0.2,0,0.4-0.1,0.5c0.1-0.2,0.2-0.5,0.4-0.7
		c0.2-0.2,0.4-0.5,0.6-0.6c0.2-0.2,0.5-0.3,0.8-0.5c0.3-0.1,0.6-0.2,0.9-0.2c0.5,0,1,0.2,1.3,0.5c0.4,0.4,0.5,1,0.5,1.5
		c0,0.2,0,0.3,0,0.5c0,0.2,0,0.4-0.1,0.6l-0.8,5.1l-0.4,0.1h-0.4h-0.4l-0.3-0.1l0.8-4.8c0-0.2,0-0.3,0.1-0.5c0-0.1,0-0.3,0-0.4
		c0-0.3-0.1-0.6-0.3-0.9c-0.2-0.2-0.4-0.3-0.7-0.3c-0.3,0-0.5,0.1-0.8,0.3c-0.3,0.2-0.5,0.5-0.7,0.8c-0.2,0.4-0.4,0.8-0.6,1.2
		c-0.2,0.5-0.3,1.1-0.4,1.7l-0.5,2.9l-0.4,0.1h-0.4h-0.4l-0.3-0.1L466.7,218.5z"/>
	<path class="st3" d="M477.3,219.4c-0.1-0.1-0.3-0.1-0.5-0.2c-0.2-0.1-0.3-0.2-0.4-0.4c-0.1-0.2-0.3-0.3-0.3-0.6
		c-0.1-0.3-0.1-0.5-0.1-0.8c0-0.3,0.1-0.7,0.2-1c0.1-0.3,0.3-0.6,0.6-0.8c0.3-0.2,0.6-0.4,0.9-0.5c0.4-0.1,0.8-0.2,1.2-0.2
		c0.4,0,0.7,0,1.1,0.1c0.3,0.1,0.6,0.2,0.8,0.3c-0.1,0.4-0.2,0.8-0.4,1.2c-0.2-0.1-0.4-0.2-0.7-0.3c-0.3-0.1-0.6-0.1-0.9-0.1
		c-0.3,0-0.7,0.1-1,0.2c-0.3,0.2-0.4,0.5-0.4,0.8c0,0.2,0.1,0.4,0.2,0.6c0.2,0.2,0.4,0.4,0.7,0.5l0.3,0.2l0.6,0.3
		c0.2,0.1,0.4,0.2,0.5,0.4c0.2,0.2,0.3,0.3,0.4,0.5c0.1,0.2,0.2,0.5,0.1,0.8c0,0.4-0.1,0.9-0.3,1.3c-0.2,0.3-0.4,0.7-0.7,0.9
		c-0.3,0.2-0.6,0.4-1,0.5c-0.4,0.1-0.8,0.2-1.3,0.2c-0.4,0-0.8,0-1.1-0.1c-0.3-0.1-0.6-0.1-0.9-0.3c0-0.2,0.1-0.4,0.1-0.6
		c0.1-0.2,0.1-0.4,0.2-0.6c0.3,0.1,0.6,0.2,0.9,0.3c0.3,0.1,0.6,0.1,0.9,0.1c0.2,0,0.4,0,0.7-0.1c0.2,0,0.4-0.1,0.5-0.2
		c0.2-0.1,0.3-0.2,0.4-0.4c0.1-0.2,0.1-0.4,0.1-0.6c0-0.3-0.1-0.5-0.3-0.7c-0.2-0.2-0.5-0.3-0.7-0.4L477.3,219.4z"/>
</g>
</svg>
