<svg id="Icon_2" data-name="Icon 2" xmlns="http://www.w3.org/2000/svg" xmlns:xlink="http://www.w3.org/1999/xlink" viewBox="0 0 283.46 283.46"><defs><style>.cls-1{fill:#04fe01;}.cls-2{fill:url(#linear-gradient);}</style><linearGradient id="linear-gradient" x1="68.8" y1="138.41" x2="151.12" y2="138.41" gradientUnits="userSpaceOnUse"><stop offset="0" stop-color="#1629f4"/><stop offset="1" stop-color="#1629f4"/></linearGradient></defs><path class="cls-1" d="M177.71,75.38l8.41-45.71-21.29-3.94-42.09,228,21.29,4,8.44-45.49c38.31-6.4,57.15-35.35,61.66-58.94C219,127.85,209.49,93.33,177.71,75.38Zm-20.86,113L173.3,99.28c12.56,9.41,22.27,27.71,19.32,47.53C189.37,168.53,173.13,183.73,156.85,188.42Z"/><path class="cls-2" d="M151.12,66.9l-.76,6.51c-.32,2.69-.82,5.29-1.34,7.8l-1.37,7.12-5,.1c-14.83.29-26.82,5.19-36.62,15a50.53,50.53,0,0,0-14.4,28.27A49.83,49.83,0,0,0,98,165.35c6,10.23,14.59,17.49,26.41,22.18l4.68,1.86-3.86,21-6.46-1.8c-28.13-7.78-54.28-39.18-49.35-78.19C74,93.94,104.78,66.47,141,66.47c1.2,0,2.39,0,3.6.09Z"/></svg>