<svg xmlns="http://www.w3.org/2000/svg" xmlns:xlink="http://www.w3.org/1999/xlink" viewBox="0 0 560 288"><defs><style>.cls-1{fill:#04fe01;}.cls-2{fill:url(#linear-gradient);}.cls-3{fill:#fff;}.cls-4{fill:url(#linear-gradient-2);}</style><linearGradient id="linear-gradient" x1="40.88" y1="139.7" x2="75.85" y2="139.7" gradientUnits="userSpaceOnUse"><stop offset="0" stop-color="#1629f4"/><stop offset="1" stop-color="#1629f4"/></linearGradient><linearGradient id="linear-gradient-2" x1="306.07" y1="129.87" x2="460.31" y2="129.87" gradientUnits="userSpaceOnUse"><stop offset="0" stop-color="#1629f4"/><stop offset="1" stop-color="#04fe01"/></linearGradient></defs><g id="Logo_3a" data-name="Logo 3a"><path class="cls-1" d="M66,191.93,84.89,89.57l7,1.3-3.81,20.68.88.5c14.07,7.94,18.21,23.42,16.11,34.44a32.76,32.76,0,0,1-27.28,26l-1,.16L73,193.26Zm12.27-27,2.2-.63a24.92,24.92,0,0,0,8.05-43.61l-1.83-1.37Z"/><path class="cls-2" d="M62.88,170.87C50.49,167.44,39,153.59,41.15,136.35a32.12,32.12,0,0,1,31.61-28.23c.52,0,1,0,1.58,0l1.51.08-.18,1.5c-.15,1.23-.38,2.45-.6,3.48l-.42,2.17-1.15,0c-7.23.14-13.07,2.53-17.86,7.32a24.69,24.69,0,0,0-7,13.82A24.37,24.37,0,0,0,51.7,153a24.82,24.82,0,0,0,12.88,10.83l1.08.43-1.29,7Z"/><path class="cls-3" d="M134,167.53l.4-.05.56,0,.61-.05h.54a4.36,4.36,0,0,1,2.57.64,2.32,2.32,0,0,1,.89,2,2.53,2.53,0,0,1-.13.8,2.44,2.44,0,0,1-.37.65,2.05,2.05,0,0,1-.53.49,2.6,2.6,0,0,1-.63.3,3.56,3.56,0,0,1,.85.23,2.31,2.31,0,0,1,.73.5,2.45,2.45,0,0,1,.51.79,3,3,0,0,1,.19,1.14,2.74,2.74,0,0,1-.3,1.32,2.58,2.58,0,0,1-.85.92,4,4,0,0,1-1.29.55,6.93,6.93,0,0,1-1.62.18l-.52,0-.57,0-.57-.06-.47-.06Zm2.32,4.33a2.35,2.35,0,0,0,1.68-.51,1.73,1.73,0,0,0,.53-1.33,1.67,1.67,0,0,0-.55-1.28,2.55,2.55,0,0,0-1.77-.52c-.25,0-.48,0-.7,0l-.53.05v3.56ZM135,176.92a5.06,5.06,0,0,0,.53.05c.22,0,.45,0,.7,0a5.49,5.49,0,0,0,1.08-.1,2.82,2.82,0,0,0,.95-.34,2,2,0,0,0,.66-.63,1.92,1.92,0,0,0,.24-1,2.17,2.17,0,0,0-.21-1,1.81,1.81,0,0,0-.58-.65,2.39,2.39,0,0,0-.86-.37,4.62,4.62,0,0,0-1.07-.12H135Zm9.88-2.68a3,3,0,0,0,.66,2.13,2.7,2.7,0,0,0,2,.68,5.24,5.24,0,0,0,1-.09,6.63,6.63,0,0,0,.9-.25,1.57,1.57,0,0,1,.11.38,3.7,3.7,0,0,1,.06.41,4.17,4.17,0,0,1-1,.29,7.5,7.5,0,0,1-1.21.1,4.33,4.33,0,0,1-1.61-.28,2.87,2.87,0,0,1-1.1-.77,3.18,3.18,0,0,1-.64-1.19,5.1,5.1,0,0,1-.21-1.51,5.46,5.46,0,0,1,.2-1.48,3.45,3.45,0,0,1,.58-1.22,2.59,2.59,0,0,1,1-.82,3.25,3.25,0,0,1,1.46-.3,3.15,3.15,0,0,1,1.26.24,2.49,2.49,0,0,1,.92.67,2.91,2.91,0,0,1,.57,1,4.19,4.19,0,0,1,.19,1.31v.32c0,.14,0,.25,0,.34Zm4.25-.78a3.13,3.13,0,0,0-.12-.86,2,2,0,0,0-.35-.74,1.75,1.75,0,0,0-.62-.52,2,2,0,0,0-.92-.2,2,2,0,0,0-1.55.61,3,3,0,0,0-.67,1.71Zm4.92,3.26a3.59,3.59,0,0,0,.8.22,5.39,5.39,0,0,0,1,.1,2.19,2.19,0,0,0,1.35-.38,1.13,1.13,0,0,0,.5-.93,1.22,1.22,0,0,0-.15-.63,1.45,1.45,0,0,0-.4-.42,2.42,2.42,0,0,0-.56-.27l-.64-.22c-.23-.08-.47-.16-.7-.26a2.24,2.24,0,0,1-.62-.36,1.86,1.86,0,0,1-.43-.53,1.67,1.67,0,0,1-.16-.78,1.73,1.73,0,0,1,.63-1.4,3,3,0,0,1,1.95-.54,5.39,5.39,0,0,1,1.07.1,3.92,3.92,0,0,1,.8.21,6,6,0,0,1-.2.81,5.42,5.42,0,0,0-.76-.2,4.19,4.19,0,0,0-.95-.1,1.94,1.94,0,0,0-1.23.3,1,1,0,0,0-.36.81.88.88,0,0,0,.12.46,1.12,1.12,0,0,0,.33.32,2.48,2.48,0,0,0,.46.24l.56.18.78.28a2.8,2.8,0,0,1,.7.39,1.84,1.84,0,0,1,.53.61,1.82,1.82,0,0,1,.2.92,2,2,0,0,1-.78,1.63,2.4,2.4,0,0,1-.87.45,4,4,0,0,1-1.12.16,7.41,7.41,0,0,1-1.22-.09,3.41,3.41,0,0,1-.85-.23A3.63,3.63,0,0,1,154.05,176.72Zm9-5.44h-1.23a.9.9,0,0,1,0-.18,1.77,1.77,0,0,1,0-.23,1.34,1.34,0,0,1,0-.21.79.79,0,0,1,0-.17h1.23v-1.36l.88-.87H164v2.23h2a.79.79,0,0,1,0,.17,1.34,1.34,0,0,1,0,.21,1.77,1.77,0,0,1,0,.23.9.9,0,0,1,0,.18h-2V176a1.46,1.46,0,0,0,.09.56.87.87,0,0,0,.24.32.79.79,0,0,0,.34.14,1.72,1.72,0,0,0,.39,0,2.57,2.57,0,0,0,.87-.13,6,6,0,0,1,.14.8,4.25,4.25,0,0,1-1.19.15,1.92,1.92,0,0,1-1.31-.43,1.76,1.76,0,0,1-.51-1.41Zm9.58,1.93s0,.12,0,.22V174q0,.13,0,.21H169s0-.12,0-.21v-.52c0-.1,0-.17,0-.22Zm4.2-5.68.24,0h.51l.23,0v10.19l-.23,0h-.53l-.22,0Zm5.78,3,.22,0h.42l.21,0c0,.17,0,.38,0,.63s0,.48,0,.67a3.15,3.15,0,0,1,.37-.52,2.7,2.7,0,0,1,.53-.47,2.86,2.86,0,0,1,.7-.35,2.63,2.63,0,0,1,.86-.13,2.15,2.15,0,0,1,1.82.74,3.37,3.37,0,0,1,.57,2.09v4.57l-.24,0h-.46l-.24,0v-4.28a3,3,0,0,0-.38-1.73,1.29,1.29,0,0,0-1.12-.53,2.3,2.3,0,0,0-.94.2,2.21,2.21,0,0,0-.76.57,2.85,2.85,0,0,0-.5.93,4.08,4.08,0,0,0-.18,1.26v3.58l-.24,0h-.46l-.24,0ZM196,173.21a1.09,1.09,0,0,1,0,.22,2.54,2.54,0,0,1,0,.26,2.44,2.44,0,0,1,0,.26,1.06,1.06,0,0,1,0,.21h-3.72s0-.12,0-.21v-.52c0-.1,0-.17,0-.22Zm10.55,3.34.2.41a2,2,0,0,1,.12.42,4.62,4.62,0,0,1-1.14.37,7.17,7.17,0,0,1-1.41.14,5.21,5.21,0,0,1-1.89-.34,4,4,0,0,1-1.47-1,4.64,4.64,0,0,1-.95-1.61,6.79,6.79,0,0,1-.34-2.21,7,7,0,0,1,.34-2.28,4.78,4.78,0,0,1,.93-1.68,3.93,3.93,0,0,1,1.46-1.05,4.9,4.9,0,0,1,1.92-.36,7.72,7.72,0,0,1,1.49.12c.4.09.69.16.86.22a2,2,0,0,1-.07.42l-.15.41-.38-.11a3.45,3.45,0,0,0-.43-.1l-.56-.07c-.21,0-.46,0-.74,0a3.67,3.67,0,0,0-1.51.3,3.15,3.15,0,0,0-1.13.89,4.22,4.22,0,0,0-.72,1.42,6.51,6.51,0,0,0-.26,1.9,5.75,5.75,0,0,0,.29,1.9,3.82,3.82,0,0,0,.78,1.34,3.2,3.2,0,0,0,1.18.78,4.06,4.06,0,0,0,1.45.26,5.54,5.54,0,0,0,1.21-.13A3.63,3.63,0,0,0,206.56,176.55Zm4.35-9.25.23,0h.46l.24,0V176a1.5,1.5,0,0,0,.09.58.88.88,0,0,0,.21.3.75.75,0,0,0,.28.11l.29,0,.32,0,.29-.05a1.34,1.34,0,0,1,.1.37c0,.13,0,.25,0,.37a2.51,2.51,0,0,1-.45.1l-.46,0a3,3,0,0,1-.59-.06,1.27,1.27,0,0,1-.91-.72,2,2,0,0,1-.14-.8ZM221,172.94a1.88,1.88,0,0,0-.44-1.37,1.77,1.77,0,0,0-1.3-.43,6.56,6.56,0,0,0-1,.08,5.38,5.38,0,0,0-.83.19,1.23,1.23,0,0,1-.12-.37,1.82,1.82,0,0,1-.05-.45,5.18,5.18,0,0,1,.9-.19,6.75,6.75,0,0,1,1.11-.08,3,3,0,0,1,2,.6,2.44,2.44,0,0,1,.67,1.89v4.78l-1.21.2a10.73,10.73,0,0,1-1.34.1,3.6,3.6,0,0,1-2.08-.53,1.9,1.9,0,0,1-.76-1.7,2.21,2.21,0,0,1,.22-1,2.13,2.13,0,0,1,.61-.75,2.51,2.51,0,0,1,.94-.46,4.08,4.08,0,0,1,1.19-.16,7.45,7.45,0,0,1,.88,0l.61.06Zm0,1.26-.6-.06a5.53,5.53,0,0,0-.69,0,2.82,2.82,0,0,0-1.64.4,1.27,1.27,0,0,0-.58,1.13,1.39,1.39,0,0,0,.17.75,1.29,1.29,0,0,0,.46.44,1.85,1.85,0,0,0,.63.19,3.82,3.82,0,0,0,.68.05,7.15,7.15,0,0,0,.82,0c.25,0,.51-.06.75-.11Zm5.22,2.52a3.59,3.59,0,0,0,.8.22,5.49,5.49,0,0,0,.95.1,2.19,2.19,0,0,0,1.35-.38,1.13,1.13,0,0,0,.5-.93,1.22,1.22,0,0,0-.15-.63,1.45,1.45,0,0,0-.4-.42,2.24,2.24,0,0,0-.56-.27l-.64-.22c-.23-.08-.47-.16-.7-.26a2.24,2.24,0,0,1-.62-.36,1.86,1.86,0,0,1-.43-.53,1.67,1.67,0,0,1-.16-.78,1.73,1.73,0,0,1,.63-1.4,3,3,0,0,1,2-.54,5.39,5.39,0,0,1,1.07.1,3.92,3.92,0,0,1,.8.21,6,6,0,0,1-.2.81,5.42,5.42,0,0,0-.76-.2,4.19,4.19,0,0,0-1-.1,1.94,1.94,0,0,0-1.23.3,1,1,0,0,0-.36.81.88.88,0,0,0,.12.46,1.12,1.12,0,0,0,.33.32,2.48,2.48,0,0,0,.46.24l.56.18.78.28a2.8,2.8,0,0,1,.7.39,1.84,1.84,0,0,1,.53.61,1.82,1.82,0,0,1,.2.92,2,2,0,0,1-.2.93,2.15,2.15,0,0,1-.57.7,2.53,2.53,0,0,1-.88.45,4,4,0,0,1-1.12.16,7.41,7.41,0,0,1-1.22-.09,3.41,3.41,0,0,1-.85-.23A3.63,3.63,0,0,1,226.19,176.72Zm8.1,0a3.86,3.86,0,0,0,.81.22,5.39,5.39,0,0,0,1,.1,2.19,2.19,0,0,0,1.35-.38,1.12,1.12,0,0,0,.49-.93,1.33,1.33,0,0,0-.14-.63,1.59,1.59,0,0,0-.4-.42,2.42,2.42,0,0,0-.56-.27l-.64-.22c-.24-.08-.47-.16-.7-.26a2.24,2.24,0,0,1-.62-.36,1.7,1.7,0,0,1-.43-.53,1.67,1.67,0,0,1-.16-.78,1.73,1.73,0,0,1,.63-1.4,3,3,0,0,1,1.95-.54,5.39,5.39,0,0,1,1.07.1,3.92,3.92,0,0,1,.8.21,8,8,0,0,1-.2.81,5.42,5.42,0,0,0-.76-.2,4.34,4.34,0,0,0-1-.1,1.93,1.93,0,0,0-1.22.3,1,1,0,0,0-.36.81.88.88,0,0,0,.12.46,1.22,1.22,0,0,0,.32.32,3,3,0,0,0,.47.24l.56.18.77.28a2.87,2.87,0,0,1,.71.39,2,2,0,0,1,.53.61,1.93,1.93,0,0,1,.2.92,2.18,2.18,0,0,1-.2.93,2.05,2.05,0,0,1-.58.7,2.44,2.44,0,0,1-.88.45,3.93,3.93,0,0,1-1.12.16,7.37,7.37,0,0,1-1.21-.09,3.64,3.64,0,0,1-.86-.23A4.9,4.9,0,0,1,234.29,176.72Zm14.59-9.19h5.45c0,.05,0,.12,0,.2v.47c0,.09,0,.16,0,.22h-4.47v3.44h3.6a1.83,1.83,0,0,0,0,.21v.47a2.06,2.06,0,0,0,0,.21h-3.6v4.07h4.6a1.25,1.25,0,0,1,0,.21,1.85,1.85,0,0,1,0,.23,2.09,2.09,0,0,1,0,.24,1.27,1.27,0,0,1,0,.22h-5.58Zm9.59,3,.22,0h.42l.21,0c0,.17,0,.38.05.63s0,.48,0,.67a3.15,3.15,0,0,1,.37-.52,3,3,0,0,1,.53-.47,2.86,2.86,0,0,1,.7-.35,2.69,2.69,0,0,1,.87-.13,2.15,2.15,0,0,1,1.81.74,3.37,3.37,0,0,1,.57,2.09v4.57l-.24,0h-.46l-.24,0v-4.28a3,3,0,0,0-.37-1.73,1.3,1.3,0,0,0-1.13-.53,2.33,2.33,0,0,0-.94.2,2.08,2.08,0,0,0-.75.57,2.69,2.69,0,0,0-.51.93,4.08,4.08,0,0,0-.18,1.26v3.58l-.24,0h-.46l-.24,0Zm10.83,3.75a2.91,2.91,0,0,0,.67,2.13,2.69,2.69,0,0,0,2,.68,5.06,5.06,0,0,0,1-.09,7.21,7.21,0,0,0,.91-.25,2.21,2.21,0,0,1,.11.38,3.7,3.7,0,0,1,.06.41,4.11,4.11,0,0,1-1,.29,7.47,7.47,0,0,1-1.2.1,4.3,4.3,0,0,1-1.61-.28,3,3,0,0,1-1.11-.77,3.18,3.18,0,0,1-.64-1.19,5.83,5.83,0,0,1,0-3,3.63,3.63,0,0,1,.58-1.22,2.59,2.59,0,0,1,1-.82,3.28,3.28,0,0,1,1.46-.3,3.15,3.15,0,0,1,1.26.24,2.53,2.53,0,0,1,.93.67,2.91,2.91,0,0,1,.57,1,4.5,4.5,0,0,1,.19,1.31c0,.08,0,.19,0,.32a3,3,0,0,1,0,.34Zm4.25-.78a3.12,3.12,0,0,0-.11-.86,2.2,2.2,0,0,0-.35-.74,1.78,1.78,0,0,0-.63-.52,2,2,0,0,0-.92-.2,2,2,0,0,0-1.54.61,3,3,0,0,0-.67,1.71Zm5.12-3,.22,0h.42l.21,0c0,.17,0,.37,0,.6s0,.44,0,.63a2.68,2.68,0,0,1,.79-.89,2.29,2.29,0,0,1,1.35-.36h.15l.17,0a2.48,2.48,0,0,1,0,.45,2.12,2.12,0,0,1,0,.44h-.31a2,2,0,0,0-1.54.61,2.85,2.85,0,0,0-.58,2v3.72l-.24,0h-.46l-.24,0Zm10.67,6.5a2.68,2.68,0,0,1,1.78.52,1.67,1.67,0,0,1,.53,1.3,1.82,1.82,0,0,1-.28,1,2.51,2.51,0,0,1-.79.76,4.39,4.39,0,0,1-1.22.5,6,6,0,0,1-1.52.18,7.09,7.09,0,0,1-1.17-.1,3.32,3.32,0,0,1-.92-.32,1.59,1.59,0,0,1-.6-.58,1.78,1.78,0,0,1-.21-.89,2.06,2.06,0,0,1,1.11-1.77,1.68,1.68,0,0,1-.45-.43,1.13,1.13,0,0,1-.18-.65,1.51,1.51,0,0,1,.26-.92,2.65,2.65,0,0,1,.7-.67,2.25,2.25,0,0,1-.79-.83,2.49,2.49,0,0,1-.3-1.25,2.63,2.63,0,0,1,.18-1,2.08,2.08,0,0,1,.53-.81,2.51,2.51,0,0,1,.87-.53,3.14,3.14,0,0,1,1.2-.2,3.24,3.24,0,0,1,1,.15,3.13,3.13,0,0,1,.8.39l.35-.13a2.93,2.93,0,0,1,.47-.12l.52-.09.53,0a2.26,2.26,0,0,1,.05.47,2.44,2.44,0,0,1-.05.48h-1.35a2.63,2.63,0,0,1,.3.66,2.25,2.25,0,0,1,.11.74,2.6,2.6,0,0,1-.21,1.08,2.18,2.18,0,0,1-.59.78,2.44,2.44,0,0,1-.88.49,3.14,3.14,0,0,1-1.08.17,3.46,3.46,0,0,1-1.07-.15,2,2,0,0,0-.56.49,1,1,0,0,0-.16.53,1.26,1.26,0,0,0,0,.27.54.54,0,0,0,.18.23,1,1,0,0,0,.38.17,2.65,2.65,0,0,0,.62.06Zm-2,.85a1.44,1.44,0,0,0-1.07.38,1.36,1.36,0,0,0-.4,1,1,1,0,0,0,.15.56,1.17,1.17,0,0,0,.43.36,2.37,2.37,0,0,0,.65.17,4.8,4.8,0,0,0,.78,0,3.93,3.93,0,0,0,2.05-.44,1.27,1.27,0,0,0,.74-1.07.83.83,0,0,0-.37-.77,2.46,2.46,0,0,0-1.2-.24Zm-1.05-5a1.87,1.87,0,0,0,.43,1.24,1.68,1.68,0,0,0,1.36.5,1.71,1.71,0,0,0,1.36-.5,2,2,0,0,0,0-2.48,1.71,1.71,0,0,0-1.36-.5,1.68,1.68,0,0,0-1.36.5A1.89,1.89,0,0,0,286.28,172.84Zm11.45,4.9h-.56l-.24,0-2.61-7.23.24,0h.58l.25,0,2.4,7,2.35-7,.23,0h.51l.23,0-3.18,9.37a2,2,0,0,1-.72,1.09,1.93,1.93,0,0,1-1.11.31,3.13,3.13,0,0,1-.6-.06,3.49,3.49,0,0,1-.5-.11,1.57,1.57,0,0,1,.21-.8l.34.1a2.59,2.59,0,0,0,.51.05,1.06,1.06,0,0,0,.66-.2,1.62,1.62,0,0,0,.43-.74Zm12.5-1.16.41.13.48.13c.17,0,.37.07.59.1s.46,0,.75,0a4,4,0,0,0,1.17-.16,2.61,2.61,0,0,0,.81-.44,1.78,1.78,0,0,0,.47-.66,2.17,2.17,0,0,0,.16-.81,2.24,2.24,0,0,0-.11-.73,1.4,1.4,0,0,0-.37-.56,2.9,2.9,0,0,0-.72-.49,11.74,11.74,0,0,0-1.16-.5c-.33-.13-.64-.26-.94-.4a3.09,3.09,0,0,1-.79-.52,2.18,2.18,0,0,1-.53-.73,2.36,2.36,0,0,1-.2-1.06,2.33,2.33,0,0,1,.83-1.86,3.61,3.61,0,0,1,2.41-.7c.21,0,.42,0,.63,0l.6.07.51.1.38.1c0,.14-.05.29-.08.43s-.08.29-.12.42a7.19,7.19,0,0,0-.87-.2,6.41,6.41,0,0,0-1.06-.09,2.42,2.42,0,0,0-1.69.48,1.61,1.61,0,0,0-.51,1.22,1.29,1.29,0,0,0,.16.66,1.57,1.57,0,0,0,.43.5,3.38,3.38,0,0,0,.66.39c.25.12.53.23.82.35s.77.32,1.11.49a3.65,3.65,0,0,1,.89.6,2.32,2.32,0,0,1,.58.8,2.65,2.65,0,0,1,.21,1.11,3,3,0,0,1-.26,1.31,2.51,2.51,0,0,1-.74,1,3.45,3.45,0,0,1-1.18.6,5.35,5.35,0,0,1-1.56.21,6.71,6.71,0,0,1-1.39-.12c-.37-.08-.71-.18-1-.28a3,3,0,0,1,.1-.46A3.38,3.38,0,0,1,310.23,176.58Zm10.32-5.3h-1.23a.9.9,0,0,1,0-.18,1.77,1.77,0,0,1,0-.23,1.34,1.34,0,0,1,0-.21.79.79,0,0,1,0-.17h1.23v-1.36l.88-.87h.06v2.23h1.95a.79.79,0,0,1,0,.17,1.34,1.34,0,0,1,0,.21,1.77,1.77,0,0,1,0,.23.9.9,0,0,1,0,.18h-1.95V176a1.46,1.46,0,0,0,.09.56.87.87,0,0,0,.24.32.79.79,0,0,0,.34.14,1.72,1.72,0,0,0,.39,0,2.57,2.57,0,0,0,.87-.13,6,6,0,0,1,.14.8,4.25,4.25,0,0,1-1.19.15,2,2,0,0,1-1.32-.43,1.79,1.79,0,0,1-.5-1.41Zm9.43,6.61a3.33,3.33,0,0,1-1.42-.29,2.88,2.88,0,0,1-1-.81,3.58,3.58,0,0,1-.61-1.2,5.94,5.94,0,0,1,0-3,3.58,3.58,0,0,1,.61-1.2,2.74,2.74,0,0,1,1-.8,3.19,3.19,0,0,1,1.42-.29,3.12,3.12,0,0,1,1.41.29,2.79,2.79,0,0,1,1,.8,3.4,3.4,0,0,1,.61,1.2,5.39,5.39,0,0,1,0,3,3.4,3.4,0,0,1-.61,1.2,2.93,2.93,0,0,1-1,.81A3.25,3.25,0,0,1,330,177.89Zm0-.83a1.93,1.93,0,0,0,1.69-.79,4.48,4.48,0,0,0,0-4.34,2.21,2.21,0,0,0-3.39,0,4.48,4.48,0,0,0,0,4.34A1.94,1.94,0,0,0,330,177.06Zm7.44-6.57.22,0h.42l.21,0c0,.17,0,.37,0,.6s0,.44,0,.63a2.57,2.57,0,0,1,.79-.89,2.29,2.29,0,0,1,1.35-.36h.14l.18,0a2.42,2.42,0,0,1,0,.45,2.12,2.12,0,0,1,0,.44h-.31a2,2,0,0,0-1.55.61,2.9,2.9,0,0,0-.58,2v3.72l-.23,0h-.46l-.24,0Zm10.92,2.45a1.88,1.88,0,0,0-.43-1.37,1.8,1.8,0,0,0-1.31-.43,6.43,6.43,0,0,0-1,.08,5.81,5.81,0,0,0-.84.19,1.23,1.23,0,0,1-.12-.37,2.48,2.48,0,0,1-.05-.45,5.53,5.53,0,0,1,.91-.19,6.71,6.71,0,0,1,1.1-.08,3,3,0,0,1,2,.6,2.4,2.4,0,0,1,.67,1.89v4.78l-1.2.2a11,11,0,0,1-1.35.1,3.62,3.62,0,0,1-2.08-.53,1.93,1.93,0,0,1-.76-1.7,2.34,2.34,0,0,1,.22-1,2.13,2.13,0,0,1,.61-.75,2.58,2.58,0,0,1,.94-.46,4.1,4.1,0,0,1,1.2-.16,7.56,7.56,0,0,1,.88,0l.6.06Zm0,1.26-.6-.06a5.49,5.49,0,0,0-.68,0,2.88,2.88,0,0,0-1.65.4,1.27,1.27,0,0,0-.58,1.13,1.39,1.39,0,0,0,.18.75,1.14,1.14,0,0,0,.46.44,1.87,1.87,0,0,0,.62.19,3.89,3.89,0,0,0,.68.05,7,7,0,0,0,.82,0c.26,0,.51-.06.75-.11Zm9.15,2.79a2.7,2.7,0,0,1,1.78.52,1.7,1.7,0,0,1,.53,1.3,1.83,1.83,0,0,1-.29,1,2.51,2.51,0,0,1-.79.76,4.32,4.32,0,0,1-1.21.5,6.17,6.17,0,0,1-1.53.18,7.09,7.09,0,0,1-1.17-.1,3.32,3.32,0,0,1-.92-.32,1.59,1.59,0,0,1-.6-.58,1.78,1.78,0,0,1-.21-.89,1.88,1.88,0,0,1,.31-1,1.92,1.92,0,0,1,.81-.74,1.68,1.68,0,0,1-.45-.43,1.06,1.06,0,0,1-.19-.65,1.59,1.59,0,0,1,.26-.92,2.81,2.81,0,0,1,.7-.67,2.25,2.25,0,0,1-.79-.83,2.49,2.49,0,0,1-.3-1.25,2.63,2.63,0,0,1,.18-1,2.32,2.32,0,0,1,.53-.81,2.71,2.71,0,0,1,.87-.53,3.21,3.21,0,0,1,1.2-.2,3.35,3.35,0,0,1,1,.15,3.06,3.06,0,0,1,.79.39l.35-.13a3.23,3.23,0,0,1,.47-.12l.53-.09.52,0a1.73,1.73,0,0,1,.06.47,1.86,1.86,0,0,1-.06.48h-1.35a2.34,2.34,0,0,1,.31.66,2.55,2.55,0,0,1,.1.74,2.6,2.6,0,0,1-.21,1.08,2.18,2.18,0,0,1-.59.78,2.44,2.44,0,0,1-.88.49,3.14,3.14,0,0,1-1.08.17,3.35,3.35,0,0,1-1.06-.15,1.87,1.87,0,0,0-.56.49.88.88,0,0,0-.17.53.86.86,0,0,0,.05.27.51.51,0,0,0,.17.23,1,1,0,0,0,.38.17,2.65,2.65,0,0,0,.62.06Zm-2,.85a1.44,1.44,0,0,0-1.07.38,1.36,1.36,0,0,0-.4,1,.93.93,0,0,0,.16.56,1,1,0,0,0,.43.36,2.3,2.3,0,0,0,.64.17,5,5,0,0,0,.78,0,4,4,0,0,0,2.06-.44,1.27,1.27,0,0,0,.73-1.07.84.84,0,0,0-.36-.77,2.53,2.53,0,0,0-1.21-.24Zm-1.05-5a1.83,1.83,0,0,0,.44,1.24,2.09,2.09,0,0,0,2.71,0,2,2,0,0,0,0-2.48,2.09,2.09,0,0,0-2.71,0A1.84,1.84,0,0,0,354.42,172.84Zm9.52,1.4a3,3,0,0,0,.66,2.13,2.7,2.7,0,0,0,2,.68,5.24,5.24,0,0,0,1-.09,6.63,6.63,0,0,0,.9-.25,1.57,1.57,0,0,1,.11.38,3.7,3.7,0,0,1,.06.41,4.17,4.17,0,0,1-1,.29,7.5,7.5,0,0,1-1.21.1,4.33,4.33,0,0,1-1.61-.28,2.87,2.87,0,0,1-1.1-.77,3.18,3.18,0,0,1-.64-1.19,5.1,5.1,0,0,1-.21-1.51,5.88,5.88,0,0,1,.19-1.48,3.65,3.65,0,0,1,.59-1.22,2.63,2.63,0,0,1,1-.82,3.31,3.31,0,0,1,1.46-.3,3.16,3.16,0,0,1,1.27.24,2.57,2.57,0,0,1,.92.67,2.91,2.91,0,0,1,.57,1,4.19,4.19,0,0,1,.19,1.31v.32c0,.14,0,.25,0,.34Zm4.25-.78a3.13,3.13,0,0,0-.12-.86,2,2,0,0,0-.35-.74,1.75,1.75,0,0,0-.62-.52,2.06,2.06,0,0,0-.93-.2,2,2,0,0,0-1.54.61,3,3,0,0,0-.67,1.71Zm10.58,3.12.42.13a4.49,4.49,0,0,0,.47.13c.17,0,.37.07.59.1s.47,0,.75,0a4,4,0,0,0,1.17-.16,2.5,2.5,0,0,0,.81-.44,1.78,1.78,0,0,0,.47-.66,2,2,0,0,0,.16-.81,2.24,2.24,0,0,0-.11-.73,1.4,1.4,0,0,0-.37-.56,2.9,2.9,0,0,0-.72-.49,11.74,11.74,0,0,0-1.16-.5c-.33-.13-.64-.26-.94-.4a2.87,2.87,0,0,1-.78-.52A2.08,2.08,0,0,1,379,171a2.62,2.62,0,0,1,.63-2.92,3.63,3.63,0,0,1,2.41-.7c.21,0,.42,0,.64,0l.59.07.51.1.38.1c0,.14,0,.29-.08.43a2.58,2.58,0,0,1-.12.42,7.19,7.19,0,0,0-.87-.2,6.41,6.41,0,0,0-1.06-.09,2.44,2.44,0,0,0-1.69.48,1.61,1.61,0,0,0-.51,1.22,1.29,1.29,0,0,0,.16.66,1.57,1.57,0,0,0,.43.5,4.11,4.11,0,0,0,.66.39l.82.35c.4.16.77.32,1.11.49a3.47,3.47,0,0,1,.89.6,2.32,2.32,0,0,1,.58.8,2.65,2.65,0,0,1,.21,1.11,3,3,0,0,1-.26,1.31,2.51,2.51,0,0,1-.74,1,3.45,3.45,0,0,1-1.18.6,5.35,5.35,0,0,1-1.56.21,6.78,6.78,0,0,1-1.39-.12c-.36-.08-.71-.18-1-.28a3,3,0,0,1,.1-.46Q378.7,176.78,378.77,176.58Zm12.82,1.31a3.33,3.33,0,0,1-1.42-.29,2.88,2.88,0,0,1-1-.81,3.58,3.58,0,0,1-.61-1.2,5.94,5.94,0,0,1,0-3,3.58,3.58,0,0,1,.61-1.2,2.74,2.74,0,0,1,1-.8,3.19,3.19,0,0,1,1.42-.29,3.12,3.12,0,0,1,1.41.29,2.79,2.79,0,0,1,1,.8,3.4,3.4,0,0,1,.61,1.2,5.39,5.39,0,0,1,0,3,3.4,3.4,0,0,1-.61,1.2,2.93,2.93,0,0,1-1,.81A3.25,3.25,0,0,1,391.59,177.89Zm0-.83a1.93,1.93,0,0,0,1.69-.79,4.48,4.48,0,0,0,0-4.34,2.21,2.21,0,0,0-3.39,0,4.48,4.48,0,0,0,0,4.34A1.94,1.94,0,0,0,391.59,177.06ZM399,167.3l.23,0h.46l.24,0V176a1.5,1.5,0,0,0,.09.58.88.88,0,0,0,.21.3.75.75,0,0,0,.28.11l.29,0,.32,0,.29-.05a1.34,1.34,0,0,1,.1.37c0,.13,0,.25,0,.37a2.51,2.51,0,0,1-.45.1l-.46,0a3,3,0,0,1-.59-.06,1.27,1.27,0,0,1-.91-.72,2,2,0,0,1-.14-.8Zm6,3.19.24,0h.46l.24,0v4.07a4.36,4.36,0,0,0,.15,1.25,1.82,1.82,0,0,0,.46.77,1.72,1.72,0,0,0,.75.38,4.25,4.25,0,0,0,1,.1,5.42,5.42,0,0,0,.84-.05,3.73,3.73,0,0,0,.65-.13v-6.39l.24,0h.46l.23,0v7a10.35,10.35,0,0,1-1.17.25,8.2,8.2,0,0,1-1.32.11,6.4,6.4,0,0,1-1.26-.13,2.42,2.42,0,0,1-1-.49,2.49,2.49,0,0,1-.68-1,4.55,4.55,0,0,1-.26-1.66Zm10.66.79h-1.23a.9.9,0,0,1,0-.18,1.77,1.77,0,0,1,0-.23,1.34,1.34,0,0,1,0-.21.79.79,0,0,1,0-.17h1.23v-1.36l.88-.87h.06v2.23h2a.79.79,0,0,1,0,.17,1.34,1.34,0,0,1,0,.21,1.77,1.77,0,0,1,0,.23.9.9,0,0,1,0,.18h-2V176a1.46,1.46,0,0,0,.09.56.87.87,0,0,0,.24.32.79.79,0,0,0,.34.14,1.72,1.72,0,0,0,.39,0,2.47,2.47,0,0,0,.86-.13,3.92,3.92,0,0,1,.14.8,4.2,4.2,0,0,1-1.19.15,2,2,0,0,1-1.31-.43,1.79,1.79,0,0,1-.5-1.41Zm7,0h-.9a.79.79,0,0,1,0-.17,1.48,1.48,0,0,1,0-.21,1.77,1.77,0,0,1,0-.23.9.9,0,0,1,0-.18h1.84v7.23l-.23,0H423l-.25,0Zm-.46-2.56c0-.09,0-.19,0-.32v-.59c0-.11,0-.21,0-.28l.31,0h.59l.29,0c0,.07,0,.17,0,.28v.59c0,.13,0,.23,0,.32l-.29,0h-.59Zm8.84,9.17a3.33,3.33,0,0,1-1.42-.29,3,3,0,0,1-1-.81,3.39,3.39,0,0,1-.6-1.2,5.65,5.65,0,0,1,0-3,3.39,3.39,0,0,1,.6-1.2,2.83,2.83,0,0,1,1-.8,3.19,3.19,0,0,1,1.42-.29,3.12,3.12,0,0,1,1.41.29,2.83,2.83,0,0,1,1,.8,3.58,3.58,0,0,1,.61,1.2,5.65,5.65,0,0,1,0,3,3.58,3.58,0,0,1-.61,1.2,3,3,0,0,1-1,.81A3.25,3.25,0,0,1,431.13,177.89Zm0-.83a1.91,1.91,0,0,0,1.69-.79,4.48,4.48,0,0,0,0-4.34,2.2,2.2,0,0,0-3.38,0,4.48,4.48,0,0,0,0,4.34A1.91,1.91,0,0,0,431.13,177.06Zm7.44-6.57.22,0h.42l.21,0a5.27,5.27,0,0,1,0,.63c0,.26,0,.48,0,.67a3.15,3.15,0,0,1,.37-.52,2.7,2.7,0,0,1,.53-.47,2.86,2.86,0,0,1,.7-.35,2.63,2.63,0,0,1,.86-.13,2.15,2.15,0,0,1,1.82.74,3.37,3.37,0,0,1,.57,2.09v4.57l-.24,0h-.46l-.24,0v-4.28a3,3,0,0,0-.38-1.73,1.29,1.29,0,0,0-1.12-.53,2.33,2.33,0,0,0-.94.2,2.21,2.21,0,0,0-.76.57,2.85,2.85,0,0,0-.5.93,4.08,4.08,0,0,0-.18,1.26v3.58l-.24,0h-.46l-.24,0Zm10,6.23a3.59,3.59,0,0,0,.8.22,5.49,5.49,0,0,0,.95.1,2.19,2.19,0,0,0,1.35-.38,1.13,1.13,0,0,0,.5-.93,1.22,1.22,0,0,0-.15-.63,1.45,1.45,0,0,0-.4-.42,2.24,2.24,0,0,0-.56-.27l-.64-.22c-.23-.08-.47-.16-.7-.26a2.24,2.24,0,0,1-.62-.36,1.86,1.86,0,0,1-.43-.53,1.67,1.67,0,0,1-.16-.78,1.73,1.73,0,0,1,.63-1.4,3,3,0,0,1,1.95-.54,5.39,5.39,0,0,1,1.07.1,3.92,3.92,0,0,1,.8.21,6,6,0,0,1-.2.81,5.42,5.42,0,0,0-.76-.2,4.19,4.19,0,0,0-1-.1,1.94,1.94,0,0,0-1.23.3,1,1,0,0,0-.36.81.88.88,0,0,0,.12.46,1.12,1.12,0,0,0,.33.32,2.48,2.48,0,0,0,.46.24l.56.18.78.28a2.8,2.8,0,0,1,.7.39,1.84,1.84,0,0,1,.53.61,1.82,1.82,0,0,1,.2.92,2,2,0,0,1-.2.93,2.15,2.15,0,0,1-.57.7,2.53,2.53,0,0,1-.88.45,4,4,0,0,1-1.12.16,7.41,7.41,0,0,1-1.22-.09,3.41,3.41,0,0,1-.85-.23A3.63,3.63,0,0,1,448.61,176.72Z"/><path class="cls-4" d="M321,111.85q6.6,0,10.17,3.27t3.56,9.29q0,6.38-3.56,9.82T321,137.67h-5.92v9.9h-9V111.85Zm-.43,18.37a5.73,5.73,0,0,0,4.12-1.4,5.53,5.53,0,0,0,1.46-4.16,5.19,5.19,0,0,0-1.46-4,5.8,5.8,0,0,0-4.12-1.36h-5.49v10.92Zm30.17-10.56a16.27,16.27,0,0,1,5.9,1,13.34,13.34,0,0,1,4.54,2.86A12.34,12.34,0,0,1,364.1,128a15.62,15.62,0,0,1,1,5.76,15.83,15.83,0,0,1-1,5.82,12.51,12.51,0,0,1-2.91,4.44,13.5,13.5,0,0,1-4.54,2.86,17.6,17.6,0,0,1-11.81,0,13.43,13.43,0,0,1-4.57-2.86,12.51,12.51,0,0,1-2.91-4.44,15.83,15.83,0,0,1-1-5.82,15.62,15.62,0,0,1,1-5.76,12.34,12.34,0,0,1,2.91-4.44,13.28,13.28,0,0,1,4.57-2.86A16.4,16.4,0,0,1,350.75,119.66Zm0,7.35a5,5,0,0,0-4.05,1.89,7.57,7.57,0,0,0-1.52,4.94,7.72,7.72,0,0,0,1.52,5,5.26,5.26,0,0,0,8.06,0,7.72,7.72,0,0,0,1.53-5,7.58,7.58,0,0,0-1.53-4.94A4.92,4.92,0,0,0,350.75,127Zm14.46-7h8.93l5.24,18.67L384.43,120h8.34l5.15,18.67L403.06,120h8.59l-9.56,27.6h-8.74l-4.9-17-4.94,17h-8.69Zm55.27,16.22a6.71,6.71,0,0,0,2.16,3.6,5.66,5.66,0,0,0,3.71,1.25,7.93,7.93,0,0,0,3.27-.71,9.29,9.29,0,0,0,2.89-2.1l4.56,4.75a13.43,13.43,0,0,1-4.92,3.65,16.35,16.35,0,0,1-6.53,1.25,16.07,16.07,0,0,1-5.82-1,12.31,12.31,0,0,1-4.39-2.83,12.08,12.08,0,0,1-2.79-4.44,17.59,17.59,0,0,1,0-11.58,13,13,0,0,1,2.79-4.47,12.4,12.4,0,0,1,4.34-2.88,15,15,0,0,1,5.61-1,14.59,14.59,0,0,1,6,1.17,11.39,11.39,0,0,1,4.29,3.32,13.41,13.41,0,0,1,2.45,5.2,22.73,22.73,0,0,1,.51,6.84ZM425.43,126a4.45,4.45,0,0,0-3.4,1.45,7.17,7.17,0,0,0-1.75,3.85h9.9a5.6,5.6,0,0,0-1.29-3.85A4.37,4.37,0,0,0,425.43,126ZM443.09,120h8.78v4.59a9.83,9.83,0,0,1,3.49-3.68,9.54,9.54,0,0,1,4.95-1.27v8.32a8.31,8.31,0,0,0-6,1.2,6,6,0,0,0-2.47,4.66v13.78h-8.78Z"/><path class="cls-3" d="M151,124a12.51,12.51,0,0,0-3.91-3.47,9.06,9.06,0,0,0-4.49-1.28A8.17,8.17,0,0,0,139,120a8.93,8.93,0,0,0-2.86,2.17,10.38,10.38,0,0,0-1.92,3.27,11.77,11.77,0,0,0-.7,4.08,12.07,12.07,0,0,0,.7,4.11,10.58,10.58,0,0,0,1.92,3.31,8.74,8.74,0,0,0,2.86,2.2,8.31,8.31,0,0,0,3.59.79,9.76,9.76,0,0,0,4.4-1.15,14,14,0,0,0,4-3.09l5.29,5.87a18.94,18.94,0,0,1-3,2.75,20.89,20.89,0,0,1-3.51,2.1,20.15,20.15,0,0,1-3.79,1.35,15.88,15.88,0,0,1-3.83.48,17.32,17.32,0,0,1-12.71-5.33,18,18,0,0,1-3.74-5.89,20,20,0,0,1-1.36-7.4,18.91,18.91,0,0,1,1.39-7.3,17.43,17.43,0,0,1,9.55-9.67,18.46,18.46,0,0,1,7.21-1.4,17.21,17.21,0,0,1,3.81.44A19.42,19.42,0,0,1,150,112.9a18.77,18.77,0,0,1,3.4,1.94,16.77,16.77,0,0,1,2.86,2.58Zm27.41,8.82a5.54,5.54,0,0,0-1.16-3.7,4,4,0,0,0-3.2-1.35,4.6,4.6,0,0,0-3.69,1.76A7,7,0,0,0,169,134v13.62h-8.78V109.71H169v14.75a9.31,9.31,0,0,1,8.64-4.85,10.08,10.08,0,0,1,3.93.74,8.49,8.49,0,0,1,3,2.12,9.46,9.46,0,0,1,1.94,3.31,13.09,13.09,0,0,1,.68,4.39v17.4h-8.78Zm29.4,11.69Q205.2,148,199.9,148a10.41,10.41,0,0,1-3.76-.64,7.91,7.91,0,0,1-2.83-1.79,7.61,7.61,0,0,1-1.78-2.72,9.77,9.77,0,0,1-.6-3.47,7.54,7.54,0,0,1,2.57-6.13c1.71-1.43,4.22-2.17,7.52-2.24h6.74v-.31a3.87,3.87,0,0,0-1.21-3,5.32,5.32,0,0,0-3.69-1.1,14.14,14.14,0,0,0-3.68.56,24,24,0,0,0-4.22,1.63l-2.38-6.12a34.89,34.89,0,0,1,6.11-2.25,24.74,24.74,0,0,1,6.21-.76q5.49,0,8.49,2.6a9.25,9.25,0,0,1,3,7.4l0,18h-8.64Zm-5.19-2.66a5.79,5.79,0,0,0,3.3-1,4.38,4.38,0,0,0,1.89-2.6v-2.4h-5.09c-2.36,0-3.54,1-3.54,2.86a2.9,2.9,0,0,0,.92,2.27A3.59,3.59,0,0,0,202.62,141.8ZM222.18,120H231v4.59a9.83,9.83,0,0,1,3.49-3.68,9.54,9.54,0,0,1,5-1.27v8.32a8.31,8.31,0,0,0-6,1.2,6,6,0,0,0-2.47,4.66v13.78h-8.78Zm45.65,25.15a13.06,13.06,0,0,1-1,5.28,11.42,11.42,0,0,1-2.91,4,13.1,13.1,0,0,1-4.49,2.52,17.86,17.86,0,0,1-5.82.9,20.81,20.81,0,0,1-6.58-1,21.28,21.28,0,0,1-5.26-2.56l3.06-6.27a13.1,13.1,0,0,0,3.85,2,13.6,13.6,0,0,0,4.25.69,6.7,6.7,0,0,0,4.56-1.43,4.85,4.85,0,0,0,1.65-3.87v-2.91a8.91,8.91,0,0,1-3.16,2.65,9.45,9.45,0,0,1-4.27.92,10.62,10.62,0,0,1-4.51-.94,10.35,10.35,0,0,1-3.54-2.71,12.62,12.62,0,0,1-2.33-4.21,17,17,0,0,1-.82-5.46,16.71,16.71,0,0,1,.8-5.36,12.21,12.21,0,0,1,2.25-4.1,10.15,10.15,0,0,1,3.5-2.66,10.46,10.46,0,0,1,4.46-.94,9,9,0,0,1,7.62,3.62V120h8.73ZM253.91,126.5a4.57,4.57,0,0,0-3.76,1.78,8.18,8.18,0,0,0,0,9.34,4.88,4.88,0,0,0,7.55,0A7.22,7.22,0,0,0,259.1,133a7.32,7.32,0,0,0-1.43-4.7A4.59,4.59,0,0,0,253.91,126.5Zm26.83,9.69a6.71,6.71,0,0,0,2.16,3.6,5.68,5.68,0,0,0,3.71,1.25,7.93,7.93,0,0,0,3.27-.71,9.29,9.29,0,0,0,2.89-2.1l4.56,4.75a13.43,13.43,0,0,1-4.92,3.65,16.35,16.35,0,0,1-6.53,1.25,16.07,16.07,0,0,1-5.82-1,12.07,12.07,0,0,1-7.18-7.27,17.59,17.59,0,0,1,0-11.58,13.18,13.18,0,0,1,2.79-4.47,12.4,12.4,0,0,1,4.34-2.88,15,15,0,0,1,5.61-1,14.56,14.56,0,0,1,6,1.17,11.39,11.39,0,0,1,4.29,3.32,13.27,13.27,0,0,1,2.45,5.2,22.73,22.73,0,0,1,.51,6.84ZM285.69,126a4.46,4.46,0,0,0-3.4,1.45,7.17,7.17,0,0,0-1.75,3.85h9.9a5.64,5.64,0,0,0-1.28-3.85A4.41,4.41,0,0,0,285.69,126Z"/></g></svg>