<svg xmlns="http://www.w3.org/2000/svg" xmlns:xlink="http://www.w3.org/1999/xlink" viewBox="0 0 560 288"><defs><style>.cls-1{fill:#04fe01;}.cls-2{fill:url(#linear-gradient);}.cls-3{fill:url(#linear-gradient-2);}.cls-4{fill:#fff;}</style><linearGradient id="linear-gradient" x1="40.88" y1="139.7" x2="75.85" y2="139.7" gradientUnits="userSpaceOnUse"><stop offset="0" stop-color="#1629f4"/><stop offset="1" stop-color="#1629f4"/></linearGradient><linearGradient id="linear-gradient-2" x1="306.07" y1="129.87" x2="460.31" y2="129.87" gradientUnits="userSpaceOnUse"><stop offset="0" stop-color="#1629f4"/><stop offset="1" stop-color="#04fe01"/></linearGradient></defs><g id="Logo_3a" data-name="Logo 3a"><path class="cls-1" d="M66,191.93,84.89,89.57l7,1.3-3.81,20.68.88.5c14.07,7.94,18.21,23.42,16.11,34.44a32.76,32.76,0,0,1-27.28,26l-1,.16L73,193.26Zm12.27-27,2.2-.63a24.92,24.92,0,0,0,8.05-43.61l-1.83-1.37Z"/><path class="cls-2" d="M62.88,170.87C50.49,167.44,39,153.59,41.15,136.35a32.12,32.12,0,0,1,31.61-28.23c.52,0,1,0,1.58,0l1.51.08-.18,1.5c-.15,1.23-.38,2.45-.6,3.48l-.42,2.17-1.15,0c-7.23.14-13.07,2.53-17.86,7.32a24.69,24.69,0,0,0-7,13.82A24.37,24.37,0,0,0,51.7,153a24.82,24.82,0,0,0,12.88,10.83l1.08.43-1.29,7Z"/><path class="cls-3" d="M321,111.85q6.6,0,10.17,3.27t3.56,9.29q0,6.38-3.56,9.82T321,137.67h-5.92v9.9h-9V111.85Zm-.43,18.37a5.73,5.73,0,0,0,4.12-1.4,5.53,5.53,0,0,0,1.46-4.16,5.19,5.19,0,0,0-1.46-4,5.8,5.8,0,0,0-4.12-1.36h-5.49v10.92Zm30.17-10.56a16.27,16.27,0,0,1,5.9,1,13.34,13.34,0,0,1,4.54,2.86A12.34,12.34,0,0,1,364.1,128a15.62,15.62,0,0,1,1,5.76,15.83,15.83,0,0,1-1,5.82,12.51,12.51,0,0,1-2.91,4.44,13.5,13.5,0,0,1-4.54,2.86,17.6,17.6,0,0,1-11.81,0,13.43,13.43,0,0,1-4.57-2.86,12.51,12.51,0,0,1-2.91-4.44,15.83,15.83,0,0,1-1-5.82,15.62,15.62,0,0,1,1-5.76,12.34,12.34,0,0,1,2.91-4.44,13.28,13.28,0,0,1,4.57-2.86A16.4,16.4,0,0,1,350.75,119.66Zm0,7.35a5,5,0,0,0-4.05,1.89,7.57,7.57,0,0,0-1.52,4.94,7.72,7.72,0,0,0,1.52,5,5.26,5.26,0,0,0,8.06,0,7.72,7.72,0,0,0,1.53-5,7.58,7.58,0,0,0-1.53-4.94A4.92,4.92,0,0,0,350.75,127Zm14.46-7h8.93l5.24,18.67L384.43,120h8.34l5.15,18.67L403.06,120h8.59l-9.56,27.6h-8.74l-4.9-17-4.94,17h-8.69Zm55.27,16.22a6.71,6.71,0,0,0,2.16,3.6,5.66,5.66,0,0,0,3.71,1.25,7.93,7.93,0,0,0,3.27-.71,9.29,9.29,0,0,0,2.89-2.1l4.56,4.75a13.43,13.43,0,0,1-4.92,3.65,16.35,16.35,0,0,1-6.53,1.25,16.07,16.07,0,0,1-5.82-1,12.31,12.31,0,0,1-4.39-2.83,12.08,12.08,0,0,1-2.79-4.44,17.59,17.59,0,0,1,0-11.58,13,13,0,0,1,2.79-4.47,12.4,12.4,0,0,1,4.34-2.88,15,15,0,0,1,5.61-1,14.59,14.59,0,0,1,6,1.17,11.39,11.39,0,0,1,4.29,3.32,13.41,13.41,0,0,1,2.45,5.2,22.73,22.73,0,0,1,.51,6.84ZM425.43,126a4.45,4.45,0,0,0-3.4,1.45,7.17,7.17,0,0,0-1.75,3.85h9.9a5.6,5.6,0,0,0-1.29-3.85A4.37,4.37,0,0,0,425.43,126ZM443.09,120h8.78v4.59a9.83,9.83,0,0,1,3.49-3.68,9.54,9.54,0,0,1,4.95-1.27v8.32a8.31,8.31,0,0,0-6,1.2,6,6,0,0,0-2.47,4.66v13.78h-8.78Z"/><path class="cls-4" d="M151,124a12.51,12.51,0,0,0-3.91-3.47,9.06,9.06,0,0,0-4.49-1.28A8.17,8.17,0,0,0,139,120a8.93,8.93,0,0,0-2.86,2.17,10.38,10.38,0,0,0-1.92,3.27,11.77,11.77,0,0,0-.7,4.08,12.07,12.07,0,0,0,.7,4.11,10.58,10.58,0,0,0,1.92,3.31,8.74,8.74,0,0,0,2.86,2.2,8.31,8.31,0,0,0,3.59.79,9.76,9.76,0,0,0,4.4-1.15,14,14,0,0,0,4-3.09l5.29,5.87a18.94,18.94,0,0,1-3,2.75,20.89,20.89,0,0,1-3.51,2.1,20.15,20.15,0,0,1-3.79,1.35,15.88,15.88,0,0,1-3.83.48,17.32,17.32,0,0,1-12.71-5.33,18,18,0,0,1-3.74-5.89,20,20,0,0,1-1.36-7.4,18.91,18.91,0,0,1,1.39-7.3,17.43,17.43,0,0,1,9.55-9.67,18.46,18.46,0,0,1,7.21-1.4,17.21,17.21,0,0,1,3.81.44A19.42,19.42,0,0,1,150,112.9a18.77,18.77,0,0,1,3.4,1.94,16.77,16.77,0,0,1,2.86,2.58Zm27.41,8.82a5.54,5.54,0,0,0-1.16-3.7,4,4,0,0,0-3.2-1.35,4.6,4.6,0,0,0-3.69,1.76A7,7,0,0,0,169,134v13.62h-8.78V109.71H169v14.75a9.31,9.31,0,0,1,8.64-4.85,10.08,10.08,0,0,1,3.93.74,8.49,8.49,0,0,1,3,2.12,9.46,9.46,0,0,1,1.94,3.31,13.09,13.09,0,0,1,.68,4.39v17.4h-8.78Zm29.4,11.69Q205.2,148,199.9,148a10.41,10.41,0,0,1-3.76-.64,7.91,7.91,0,0,1-2.83-1.79,7.61,7.61,0,0,1-1.78-2.72,9.77,9.77,0,0,1-.6-3.47,7.54,7.54,0,0,1,2.57-6.13c1.71-1.43,4.22-2.17,7.52-2.24h6.74v-.31a3.87,3.87,0,0,0-1.21-3,5.32,5.32,0,0,0-3.69-1.1,14.14,14.14,0,0,0-3.68.56,24,24,0,0,0-4.22,1.63l-2.38-6.12a34.89,34.89,0,0,1,6.11-2.25,24.74,24.74,0,0,1,6.21-.76q5.49,0,8.49,2.6a9.25,9.25,0,0,1,3,7.4l0,18h-8.64Zm-5.19-2.66a5.79,5.79,0,0,0,3.3-1,4.38,4.38,0,0,0,1.89-2.6v-2.4h-5.09c-2.36,0-3.54,1-3.54,2.86a2.9,2.9,0,0,0,.92,2.27A3.59,3.59,0,0,0,202.62,141.8ZM222.18,120H231v4.59a9.83,9.83,0,0,1,3.49-3.68,9.54,9.54,0,0,1,5-1.27v8.32a8.31,8.31,0,0,0-6,1.2,6,6,0,0,0-2.47,4.66v13.78h-8.78Zm45.65,25.15a13.06,13.06,0,0,1-1,5.28,11.42,11.42,0,0,1-2.91,4,13.1,13.1,0,0,1-4.49,2.52,17.86,17.86,0,0,1-5.82.9,20.81,20.81,0,0,1-6.58-1,21.28,21.28,0,0,1-5.26-2.56l3.06-6.27a13.1,13.1,0,0,0,3.85,2,13.6,13.6,0,0,0,4.25.69,6.7,6.7,0,0,0,4.56-1.43,4.85,4.85,0,0,0,1.65-3.87v-2.91a8.91,8.91,0,0,1-3.16,2.65,9.45,9.45,0,0,1-4.27.92,10.62,10.62,0,0,1-4.51-.94,10.35,10.35,0,0,1-3.54-2.71,12.62,12.62,0,0,1-2.33-4.21,17,17,0,0,1-.82-5.46,16.71,16.71,0,0,1,.8-5.36,12.21,12.21,0,0,1,2.25-4.1,10.15,10.15,0,0,1,3.5-2.66,10.46,10.46,0,0,1,4.46-.94,9,9,0,0,1,7.62,3.62V120h8.73ZM253.91,126.5a4.57,4.57,0,0,0-3.76,1.78,8.18,8.18,0,0,0,0,9.34,4.88,4.88,0,0,0,7.55,0A7.22,7.22,0,0,0,259.1,133a7.32,7.32,0,0,0-1.43-4.7A4.59,4.59,0,0,0,253.91,126.5Zm26.83,9.69a6.71,6.71,0,0,0,2.16,3.6,5.68,5.68,0,0,0,3.71,1.25,7.93,7.93,0,0,0,3.27-.71,9.29,9.29,0,0,0,2.89-2.1l4.56,4.75a13.43,13.43,0,0,1-4.92,3.65,16.35,16.35,0,0,1-6.53,1.25,16.07,16.07,0,0,1-5.82-1,12.07,12.07,0,0,1-7.18-7.27,17.59,17.59,0,0,1,0-11.58,13.18,13.18,0,0,1,2.79-4.47,12.4,12.4,0,0,1,4.34-2.88,15,15,0,0,1,5.61-1,14.56,14.56,0,0,1,6,1.17,11.39,11.39,0,0,1,4.29,3.32,13.27,13.27,0,0,1,2.45,5.2,22.73,22.73,0,0,1,.51,6.84ZM285.69,126a4.46,4.46,0,0,0-3.4,1.45,7.17,7.17,0,0,0-1.75,3.85h9.9a5.64,5.64,0,0,0-1.28-3.85A4.41,4.41,0,0,0,285.69,126Z"/><path class="cls-4" d="M130.77,177.68h-5V166.46h4c2.08,0,3.56,1.29,3.56,3.12a2.68,2.68,0,0,1-.84,2,2.82,2.82,0,0,1,2,2.77C134.46,176.32,132.93,177.68,130.77,177.68ZM128,168.43V171h1.58c.94,0,1.47-.5,1.47-1.3s-.53-1.27-1.47-1.27Zm2.62,4.46H128v2.82h2.62c1,0,1.6-.53,1.6-1.41S131.6,172.89,130.6,172.89Zm8.06,1.36a2.22,2.22,0,0,0,2.37,1.66,3.79,3.79,0,0,0,2.34-.85l1,1.57a5.19,5.19,0,0,1-3.37,1.26,4.42,4.42,0,0,1-4.61-4.41,4.33,4.33,0,0,1,4.4-4.4,3.83,3.83,0,0,1,4,3.91,5.06,5.06,0,0,1-.16,1.26Zm3.83-1.62a1.71,1.71,0,0,0-1.82-1.7,2.08,2.08,0,0,0-2,1.7Zm5,2.23A3.27,3.27,0,0,0,149.9,176c.62,0,1.07-.24,1.07-.7s-.23-.49-.86-.76l-.9-.38c-1.55-.63-2.3-1.33-2.3-2.57,0-1.58,1.26-2.51,3.09-2.51a3.91,3.91,0,0,1,3,1.25l-1.15,1.42A2.69,2.69,0,0,0,150,171c-.56,0-.9.2-.9.59s.22.48.88.75l.82.34c1.63.66,2.36,1.33,2.36,2.57a2.32,2.32,0,0,1-.93,2,3.72,3.72,0,0,1-2.35.72,4.24,4.24,0,0,1-3.49-1.64Zm13.4,2.82a6.3,6.3,0,0,1-1.58.21c-2.13,0-3.37-1.06-3.37-3.17V171.2h-1.33v-1.94H156v-2.13h2.3v2.13h2.38v1.94h-2.38v3.32c0,.95.47,1.31,1.56,1.31.14,0,.5,0,1.09-.07Zm1.85-6.41h4.29v1.92h-4.29Zm7-4.81h2.3v11.22h-2.3Zm13,11.22h-2.28v-4.91a1.53,1.53,0,0,0-1.57-1.64,1.55,1.55,0,0,0-1.6,1.64v4.91h-2.29v-8.42h2.11V170a3.4,3.4,0,0,1,2.46-.95,3.06,3.06,0,0,1,3.17,3.38Zm2.48-6.41h4.28v1.92h-4.28Zm12.33-5a5.56,5.56,0,0,1,4.95,2.79l-1.74,1.23a3.65,3.65,0,0,0-3.21-1.89,3.69,3.69,0,0,0,0,7.38,3.65,3.65,0,0,0,3.21-1.89l1.74,1.23a5.53,5.53,0,0,1-5,2.79,5.82,5.82,0,1,1,0-11.64Zm7.39-1.33h2.3v12.76H205Zm12.29,12.76h-2.11v-.81a3.51,3.51,0,0,1-2.57,1c-1.79,0-2.91-1-2.91-2.52s1.22-2.45,3.18-2.45H215v-.37a1.37,1.37,0,0,0-1.56-1.48,2.87,2.87,0,0,0-2.23,1.15L210,170.81a4.57,4.57,0,0,1,3.67-1.73,3.31,3.31,0,0,1,3.61,3.6Zm-2.3-3.25h-1.8c-.75,0-1.18.29-1.18.86s.48.91,1.21.91a1.67,1.67,0,0,0,1.77-1.66Zm5.54.43A3.31,3.31,0,0,0,222.9,176c.61,0,1.07-.24,1.07-.7s-.24-.49-.87-.76l-.9-.38c-1.55-.63-2.3-1.33-2.3-2.57,0-1.58,1.26-2.51,3.1-2.51a3.93,3.93,0,0,1,3,1.25l-1.16,1.42A2.69,2.69,0,0,0,223,171c-.56,0-.9.2-.9.59s.22.48.89.75l.81.34c1.64.66,2.37,1.33,2.37,2.57a2.33,2.33,0,0,1-.94,2,3.67,3.67,0,0,1-2.34.72,4.21,4.21,0,0,1-3.49-1.64Zm8.39,0a3.27,3.27,0,0,0,2.36,1.14c.62,0,1.08-.24,1.08-.7s-.24-.49-.87-.76l-.9-.38c-1.55-.63-2.3-1.33-2.3-2.57,0-1.58,1.26-2.51,3.1-2.51a3.91,3.91,0,0,1,3,1.25l-1.15,1.42a2.69,2.69,0,0,0-1.89-.8c-.56,0-.9.2-.9.59s.22.48.88.75l.82.34c1.63.66,2.36,1.33,2.36,2.57a2.32,2.32,0,0,1-.93,2,3.7,3.7,0,0,1-2.35.72,4.24,4.24,0,0,1-3.49-1.64Zm13.55-8.4H250v2.07h-5.26v2.28h3.86v2h-3.86v2.84h5.46v2.07h-7.76Zm18,11.22h-2.28v-4.91a1.52,1.52,0,0,0-1.56-1.64,1.55,1.55,0,0,0-1.6,1.64v4.91h-2.3v-8.42h2.11V170a3.43,3.43,0,0,1,2.47-.95,3.06,3.06,0,0,1,3.16,3.38Zm4.69-3.43a2.23,2.23,0,0,0,2.37,1.66,3.82,3.82,0,0,0,2.35-.85l.95,1.57a5.17,5.17,0,0,1-3.37,1.26,4.42,4.42,0,0,1-4.61-4.41,4.33,4.33,0,0,1,4.41-4.4,3.82,3.82,0,0,1,4,3.91,5.55,5.55,0,0,1-.15,1.26Zm3.83-1.62a1.7,1.7,0,0,0-1.82-1.7,2.08,2.08,0,0,0-2,1.7Zm9.83-1.34h-.61a2,2,0,0,0-2.26,2.19v4.2h-2.3v-8.42h2.11v1a2.92,2.92,0,0,1,2.31-1.11,2.43,2.43,0,0,1,.75.1Zm10.36-2v7.49c0,2.74-1.72,4.2-4.35,4.2a6.06,6.06,0,0,1-4.14-1.57l1.21-1.59a4.44,4.44,0,0,0,2.74,1.09c1.36,0,2.24-.69,2.24-2v-.46a3.34,3.34,0,0,1-2.57,1,4.18,4.18,0,0,1,0-8.35,3.28,3.28,0,0,1,2.76,1.24v-1.06ZM284.77,171a2.08,2.08,0,0,0-2.18,2.2,2.14,2.14,0,0,0,2.18,2.26,2.11,2.11,0,0,0,2.13-2.28A2,2,0,0,0,284.77,171Zm15.48-1.77-4,9.16c-.77,1.75-1.79,2.53-3.35,2.53a6.12,6.12,0,0,1-1.49-.2v-1.93a9.42,9.42,0,0,0,1,.07,1.66,1.66,0,0,0,1.75-1.14l.26-.58-3.23-7.91h2.43l2.06,5.53,2.19-5.53Zm8.35,5a3.26,3.26,0,0,0,2.75,1.64c1,0,1.6-.48,1.6-1.25s-.36-.9-1.43-1.39l-1.2-.54c-1.72-.77-2.73-1.74-2.73-3.24,0-1.92,1.6-3.18,3.73-3.18a4,4,0,0,1,3.71,2.13l-1.57,1.2a2.53,2.53,0,0,0-2.14-1.29c-.8,0-1.4.39-1.4,1.09s.36.87,1.31,1.29l1.28.57c1.89.83,2.77,1.76,2.77,3.28,0,2.06-1.68,3.37-3.93,3.37A4.9,4.9,0,0,1,307,175.4Zm14.52,3.47a6.3,6.3,0,0,1-1.58.21c-2.13,0-3.37-1.06-3.37-3.17V171.2h-1.33v-1.94h1.33v-2.13h2.3v2.13h2.38v1.94h-2.38v3.32c0,.95.47,1.31,1.56,1.31.14,0,.5,0,1.09-.07Zm6.18-8.6a4.4,4.4,0,1,1-4.51,4.38A4.44,4.44,0,0,1,329.3,169.08Zm0,2.09a2.3,2.3,0,1,0,2.17,2.31A2.2,2.2,0,0,0,329.3,171.17Zm12.12.12h-.61a2,2,0,0,0-2.26,2.19v4.2h-2.3v-8.42h2.11v1a2.92,2.92,0,0,1,2.31-1.11,2.43,2.43,0,0,1,.75.1Zm9,6.39h-2.11v-.81a3.52,3.52,0,0,1-2.57,1c-1.79,0-2.91-1-2.91-2.52s1.22-2.45,3.18-2.45h2.11v-.37a1.38,1.38,0,0,0-1.57-1.48,2.88,2.88,0,0,0-2.23,1.15l-1.19-1.41a4.59,4.59,0,0,1,3.68-1.73,3.31,3.31,0,0,1,3.61,3.6Zm-2.3-3.25h-1.8c-.75,0-1.18.29-1.18.86s.48.91,1.21.91a1.67,1.67,0,0,0,1.77-1.66Zm13.61-5.17v7.49c0,2.74-1.72,4.2-4.36,4.2a6,6,0,0,1-4.13-1.57l1.21-1.59a4.39,4.39,0,0,0,2.73,1.09c1.37,0,2.25-.69,2.25-2v-.46a3.35,3.35,0,0,1-2.57,1,4.18,4.18,0,0,1,0-8.35,3.29,3.29,0,0,1,2.76,1.24v-1.06ZM357.31,171a2.08,2.08,0,0,0-2.18,2.2,2.14,2.14,0,0,0,2.18,2.26,2.1,2.1,0,0,0,2.12-2.28A2,2,0,0,0,357.31,171Zm9.15,3.22a2.22,2.22,0,0,0,2.36,1.66,3.79,3.79,0,0,0,2.35-.85l.95,1.57a5.15,5.15,0,0,1-3.37,1.26,4.42,4.42,0,0,1-4.61-4.41,4.34,4.34,0,0,1,4.41-4.4,3.82,3.82,0,0,1,4,3.91,5.55,5.55,0,0,1-.15,1.26Zm3.83-1.62a1.72,1.72,0,0,0-1.83-1.7,2.07,2.07,0,0,0-2,1.7Zm11,1.58a3.28,3.28,0,0,0,2.76,1.64c1,0,1.6-.48,1.6-1.25s-.36-.9-1.43-1.39l-1.21-.54c-1.72-.77-2.72-1.74-2.72-3.24,0-1.92,1.6-3.18,3.73-3.18a4,4,0,0,1,3.7,2.13l-1.56,1.2a2.53,2.53,0,0,0-2.14-1.29c-.8,0-1.4.39-1.4,1.09s.36.87,1.31,1.29l1.28.57c1.89.83,2.77,1.76,2.77,3.28,0,2.06-1.68,3.37-3.93,3.37a4.89,4.89,0,0,1-4.34-2.49Zm13.24-5.13a4.4,4.4,0,1,1-4.51,4.38A4.44,4.44,0,0,1,394.54,169.08Zm0,2.09a2.3,2.3,0,1,0,2.17,2.31A2.2,2.2,0,0,0,394.54,171.17Zm6.95-6.25h2.3v12.76h-2.3Zm5.14,4.34h2.29v4.9a1.59,1.59,0,1,0,3.17,0v-4.9h2.3V174a3.88,3.88,0,1,1-7.76,0Zm16,8.42a6.3,6.3,0,0,1-1.58.21c-2.13,0-3.37-1.06-3.37-3.17V171.2h-1.32v-1.94h1.32v-2.13H420v2.13h2.38v1.94H420v3.32c0,.95.48,1.31,1.56,1.31.14,0,.5,0,1.09-.07Zm3.45-12.91a1.42,1.42,0,1,1,0,2.84,1.42,1.42,0,1,1,0-2.84Zm-1.14,4.49h2.3v8.42h-2.3Zm9.26-.18a4.4,4.4,0,1,1-4.51,4.38A4.44,4.44,0,0,1,434.2,169.08Zm0,2.09a2.3,2.3,0,1,0,2.17,2.31A2.2,2.2,0,0,0,434.2,171.17Zm14.69,6.51h-2.28v-4.91a1.52,1.52,0,0,0-1.56-1.64,1.55,1.55,0,0,0-1.6,1.64v4.91h-2.3v-8.42h2.11V170a3.44,3.44,0,0,1,2.47-.95,3.05,3.05,0,0,1,3.16,3.38Zm3.25-2.82A3.27,3.27,0,0,0,454.5,176c.62,0,1.08-.24,1.08-.7s-.24-.49-.87-.76l-.9-.38c-1.55-.63-2.3-1.33-2.3-2.57,0-1.58,1.26-2.51,3.1-2.51a3.89,3.89,0,0,1,3,1.25l-1.15,1.42a2.69,2.69,0,0,0-1.89-.8c-.56,0-.9.2-.9.59s.22.48.88.75l.82.34c1.63.66,2.36,1.33,2.36,2.57a2.32,2.32,0,0,1-.93,2,3.7,3.7,0,0,1-2.35.72,4.24,4.24,0,0,1-3.49-1.64Z"/></g></svg>