<svg xmlns="http://www.w3.org/2000/svg" xmlns:xlink="http://www.w3.org/1999/xlink" viewBox="0 0 560 288"><defs><style>.cls-1{fill:#04fe01;}.cls-2{fill:url(#linear-gradient);}.cls-11,.cls-3{font-size:14.17px;font-family:ArgentumSans-Regular, Argentum Sans;letter-spacing:0.12em;}.cls-4{letter-spacing:0.11em;}.cls-5{letter-spacing:0.12em;}.cls-6{letter-spacing:0.12em;}.cls-7{letter-spacing:0.12em;}.cls-8{letter-spacing:0.11em;}.cls-9{letter-spacing:0.1em;}.cls-10{letter-spacing:0.11em;}.cls-11,.cls-13{fill:#fff;}.cls-12{fill:url(#linear-gradient-2);}</style><linearGradient id="linear-gradient" x1="39.46" y1="139.89" x2="77.43" y2="139.89" gradientUnits="userSpaceOnUse"><stop offset="0" stop-color="#1629f4"/><stop offset="1" stop-color="#1629f4"/></linearGradient><linearGradient id="linear-gradient-2" x1="306.07" y1="129.87" x2="460.31" y2="129.87" gradientUnits="userSpaceOnUse"><stop offset="0" stop-color="#1629f4"/><stop offset="1" stop-color="#04fe01"/></linearGradient></defs><g id="Logo_3a" data-name="Logo 3a"><path class="cls-1" d="M89.69,110.82l3.88-21.08-9.82-1.82L64.34,193.07l9.82,1.85,3.89-21a33.87,33.87,0,0,0,11.64-63.12ZM80.07,163l7.59-41.11A23.5,23.5,0,0,1,80.07,163Z"/><path class="cls-2" d="M77.43,106.91l-.35,3c-.15,1.24-.38,2.44-.62,3.6l-.63,3.28-2.3,0A23.62,23.62,0,0,0,50,136.79a23,23,0,0,0,2.92,15.52A23.5,23.5,0,0,0,65.1,162.54l2.16.86-1.78,9.67-3-.83c-13-3.59-25-18.07-22.76-36.06a33.53,33.53,0,0,1,33-29.47c.55,0,1.1,0,1.66,0Z"/><text class="cls-3" transform="translate(126.58 177.79)">Bes<tspan class="cls-4" x="30.06" y="0">t</tspan><tspan x="37.37" y="0">-In</tspan><tspan class="cls-5" x="61.33" y="0">-</tspan><tspan x="68.31" y="0">Class E</tspan><tspan class="cls-6" x="128.88" y="0">n</tspan><tspan class="cls-7" x="140.01" y="0">e</tspan><tspan class="cls-8" x="150.04" y="0">r</tspan><tspan x="157.15" y="0">gy S</tspan><tspan class="cls-9" x="192.88" y="0">t</tspan><tspan x="200.08" y="0">o</tspan><tspan class="cls-10" x="210.63" y="0">r</tspan><tspan class="cls-6" x="217.78" y="0">a</tspan><tspan class="cls-7" x="227.83" y="0">ge Solutions</tspan></text><text class="cls-11" transform="translate(126.58 177.79)">Bes<tspan class="cls-4" x="30.06" y="0">t</tspan><tspan x="37.37" y="0">-In</tspan><tspan class="cls-5" x="61.33" y="0">-</tspan><tspan x="68.31" y="0">Class E</tspan><tspan class="cls-6" x="128.88" y="0">n</tspan><tspan class="cls-7" x="140.01" y="0">e</tspan><tspan class="cls-8" x="150.04" y="0">r</tspan><tspan x="157.15" y="0">gy S</tspan><tspan class="cls-9" x="192.88" y="0">t</tspan><tspan x="200.08" y="0">o</tspan><tspan class="cls-10" x="210.63" y="0">r</tspan><tspan class="cls-6" x="217.78" y="0">a</tspan><tspan class="cls-7" x="227.83" y="0">ge Solutions</tspan></text><path class="cls-12" d="M321,111.85q6.6,0,10.17,3.27t3.56,9.29q0,6.38-3.56,9.82T321,137.67h-5.92v9.9h-9V111.85Zm-.43,18.37a5.73,5.73,0,0,0,4.12-1.4,5.53,5.53,0,0,0,1.46-4.16,5.19,5.19,0,0,0-1.46-4,5.8,5.8,0,0,0-4.12-1.36h-5.49v10.92Zm30.17-10.56a16.27,16.27,0,0,1,5.9,1,13.34,13.34,0,0,1,4.54,2.86A12.34,12.34,0,0,1,364.1,128a15.62,15.62,0,0,1,1,5.76,15.83,15.83,0,0,1-1,5.82,12.51,12.51,0,0,1-2.91,4.44,13.5,13.5,0,0,1-4.54,2.86,17.6,17.6,0,0,1-11.81,0,13.43,13.43,0,0,1-4.57-2.86,12.51,12.51,0,0,1-2.91-4.44,15.83,15.83,0,0,1-1-5.82,15.62,15.62,0,0,1,1-5.76,12.34,12.34,0,0,1,2.91-4.44,13.28,13.28,0,0,1,4.57-2.86A16.4,16.4,0,0,1,350.75,119.66Zm0,7.35a5,5,0,0,0-4.05,1.89,7.57,7.57,0,0,0-1.52,4.94,7.72,7.72,0,0,0,1.52,5,5.26,5.26,0,0,0,8.06,0,7.72,7.72,0,0,0,1.53-5,7.58,7.58,0,0,0-1.53-4.94A4.92,4.92,0,0,0,350.75,127Zm14.46-7h8.93l5.24,18.67L384.43,120h8.34l5.15,18.67L403.06,120h8.59l-9.56,27.6h-8.74l-4.9-17-4.94,17h-8.69Zm55.27,16.22a6.71,6.71,0,0,0,2.16,3.6,5.66,5.66,0,0,0,3.71,1.25,7.93,7.93,0,0,0,3.27-.71,9.29,9.29,0,0,0,2.89-2.1l4.56,4.75a13.43,13.43,0,0,1-4.92,3.65,16.35,16.35,0,0,1-6.53,1.25,16.07,16.07,0,0,1-5.82-1,12.31,12.31,0,0,1-4.39-2.83,12.08,12.08,0,0,1-2.79-4.44,17.59,17.59,0,0,1,0-11.58,13,13,0,0,1,2.79-4.47,12.4,12.4,0,0,1,4.34-2.88,15,15,0,0,1,5.61-1,14.59,14.59,0,0,1,6,1.17,11.39,11.39,0,0,1,4.29,3.32,13.41,13.41,0,0,1,2.45,5.2,22.73,22.73,0,0,1,.51,6.84ZM425.43,126a4.45,4.45,0,0,0-3.4,1.45,7.17,7.17,0,0,0-1.75,3.85h9.9a5.6,5.6,0,0,0-1.29-3.85A4.37,4.37,0,0,0,425.43,126ZM443.09,120h8.78v4.59a9.83,9.83,0,0,1,3.49-3.68,9.54,9.54,0,0,1,4.95-1.27v8.32a8.31,8.31,0,0,0-6,1.2,6,6,0,0,0-2.47,4.66v13.78h-8.78Z"/><path class="cls-13" d="M151,124a12.51,12.51,0,0,0-3.91-3.47,9.06,9.06,0,0,0-4.49-1.28A8.17,8.17,0,0,0,139,120a8.93,8.93,0,0,0-2.86,2.17,10.38,10.38,0,0,0-1.92,3.27,11.77,11.77,0,0,0-.7,4.08,12.07,12.07,0,0,0,.7,4.11,10.58,10.58,0,0,0,1.92,3.31,8.74,8.74,0,0,0,2.86,2.2,8.31,8.31,0,0,0,3.59.79,9.76,9.76,0,0,0,4.4-1.15,14,14,0,0,0,4-3.09l5.29,5.87a18.94,18.94,0,0,1-3,2.75,20.89,20.89,0,0,1-3.51,2.1,20.15,20.15,0,0,1-3.79,1.35,15.88,15.88,0,0,1-3.83.48,17.32,17.32,0,0,1-12.71-5.33,18,18,0,0,1-3.74-5.89,20,20,0,0,1-1.36-7.4,18.91,18.91,0,0,1,1.39-7.3,17.43,17.43,0,0,1,9.55-9.67,18.46,18.46,0,0,1,7.21-1.4,17.21,17.21,0,0,1,3.81.44A19.42,19.42,0,0,1,150,112.9a18.77,18.77,0,0,1,3.4,1.94,16.77,16.77,0,0,1,2.86,2.58Zm27.41,8.82a5.54,5.54,0,0,0-1.16-3.7,4,4,0,0,0-3.2-1.35,4.6,4.6,0,0,0-3.69,1.76A7,7,0,0,0,169,134v13.62h-8.78V109.71H169v14.75a9.31,9.31,0,0,1,8.64-4.85,10.08,10.08,0,0,1,3.93.74,8.49,8.49,0,0,1,3,2.12,9.46,9.46,0,0,1,1.94,3.31,13.09,13.09,0,0,1,.68,4.39v17.4h-8.78Zm29.4,11.69Q205.2,148,199.9,148a10.41,10.41,0,0,1-3.76-.64,7.91,7.91,0,0,1-2.83-1.79,7.61,7.61,0,0,1-1.78-2.72,9.77,9.77,0,0,1-.6-3.47,7.54,7.54,0,0,1,2.57-6.13c1.71-1.43,4.22-2.17,7.52-2.24h6.74v-.31a3.87,3.87,0,0,0-1.21-3,5.32,5.32,0,0,0-3.69-1.1,14.14,14.14,0,0,0-3.68.56,24,24,0,0,0-4.22,1.63l-2.38-6.12a34.89,34.89,0,0,1,6.11-2.25,24.74,24.74,0,0,1,6.21-.76q5.49,0,8.49,2.6a9.25,9.25,0,0,1,3,7.4l0,18h-8.64Zm-5.19-2.66a5.79,5.79,0,0,0,3.3-1,4.38,4.38,0,0,0,1.89-2.6v-2.4h-5.09c-2.36,0-3.54,1-3.54,2.86a2.9,2.9,0,0,0,.92,2.27A3.59,3.59,0,0,0,202.62,141.8ZM222.18,120H231v4.59a9.83,9.83,0,0,1,3.49-3.68,9.54,9.54,0,0,1,5-1.27v8.32a8.31,8.31,0,0,0-6,1.2,6,6,0,0,0-2.47,4.66v13.78h-8.78Zm45.65,25.15a13.06,13.06,0,0,1-1,5.28,11.42,11.42,0,0,1-2.91,4,13.1,13.1,0,0,1-4.49,2.52,17.86,17.86,0,0,1-5.82.9,20.81,20.81,0,0,1-6.58-1,21.28,21.28,0,0,1-5.26-2.56l3.06-6.27a13.1,13.1,0,0,0,3.85,2,13.6,13.6,0,0,0,4.25.69,6.7,6.7,0,0,0,4.56-1.43,4.85,4.85,0,0,0,1.65-3.87v-2.91a8.91,8.91,0,0,1-3.16,2.65,9.45,9.45,0,0,1-4.27.92,10.62,10.62,0,0,1-4.51-.94,10.35,10.35,0,0,1-3.54-2.71,12.62,12.62,0,0,1-2.33-4.21,17,17,0,0,1-.82-5.46,16.71,16.71,0,0,1,.8-5.36,12.21,12.21,0,0,1,2.25-4.1,10.15,10.15,0,0,1,3.5-2.66,10.46,10.46,0,0,1,4.46-.94,9,9,0,0,1,7.62,3.62V120h8.73ZM253.91,126.5a4.57,4.57,0,0,0-3.76,1.78,8.18,8.18,0,0,0,0,9.34,4.88,4.88,0,0,0,7.55,0A7.22,7.22,0,0,0,259.1,133a7.32,7.32,0,0,0-1.43-4.7A4.59,4.59,0,0,0,253.91,126.5Zm26.83,9.69a6.71,6.71,0,0,0,2.16,3.6,5.68,5.68,0,0,0,3.71,1.25,7.93,7.93,0,0,0,3.27-.71,9.29,9.29,0,0,0,2.89-2.1l4.56,4.75a13.43,13.43,0,0,1-4.92,3.65,16.35,16.35,0,0,1-6.53,1.25,16.07,16.07,0,0,1-5.82-1,12.07,12.07,0,0,1-7.18-7.27,17.59,17.59,0,0,1,0-11.58,13.18,13.18,0,0,1,2.79-4.47,12.4,12.4,0,0,1,4.34-2.88,15,15,0,0,1,5.61-1,14.56,14.56,0,0,1,6,1.17,11.39,11.39,0,0,1,4.29,3.32,13.27,13.27,0,0,1,2.45,5.2,22.73,22.73,0,0,1,.51,6.84ZM285.69,126a4.46,4.46,0,0,0-3.4,1.45,7.17,7.17,0,0,0-1.75,3.85h9.9a5.64,5.64,0,0,0-1.28-3.85A4.41,4.41,0,0,0,285.69,126Z"/></g></svg>